%TF.GenerationSoftware,KiCad,Pcbnew,9.0.4*%
%TF.CreationDate,2025-09-14T00:07:06+02:00*%
%TF.ProjectId,charging-module-slim,63686172-6769-46e6-972d-6d6f64756c65,rev?*%
%TF.SameCoordinates,Original*%
%TF.FileFunction,Copper,L2,Inr*%
%TF.FilePolarity,Positive*%
%FSLAX46Y46*%
G04 Gerber Fmt 4.6, Leading zero omitted, Abs format (unit mm)*
G04 Created by KiCad (PCBNEW 9.0.4) date 2025-09-14 00:07:06*
%MOMM*%
%LPD*%
G01*
G04 APERTURE LIST*
%TA.AperFunction,ComponentPad*%
%ADD10R,1.350000X1.350000*%
%TD*%
%TA.AperFunction,ComponentPad*%
%ADD11C,1.350000*%
%TD*%
%TA.AperFunction,HeatsinkPad*%
%ADD12O,2.100000X1.000000*%
%TD*%
%TA.AperFunction,HeatsinkPad*%
%ADD13O,1.600000X1.000000*%
%TD*%
%TA.AperFunction,ViaPad*%
%ADD14C,0.600000*%
%TD*%
G04 APERTURE END LIST*
D10*
%TO.N,Net-(IC1-THERM)*%
%TO.C,TH1*%
X49550000Y-101750000D03*
D11*
%TO.N,GND*%
X49550000Y-99750000D03*
%TD*%
D12*
%TO.N,GND*%
%TO.C,J2*%
X29480000Y-96680000D03*
D13*
X25300000Y-96680000D03*
D12*
X29480000Y-105320000D03*
D13*
X25300000Y-105320000D03*
%TD*%
D10*
%TO.N,/Vbat*%
%TO.C,J1*%
X53250000Y-97270000D03*
D11*
%TO.N,GND*%
X53250000Y-99270000D03*
%TD*%
D10*
%TO.N,/Load*%
%TO.C,J3*%
X53250000Y-104530000D03*
D11*
%TO.N,GND*%
X53250000Y-102530000D03*
%TD*%
D14*
%TO.N,GND*%
X31750000Y-96675000D03*
X34225000Y-105700000D03*
X33800000Y-99800000D03*
X45200000Y-96300000D03*
X49706502Y-105630001D03*
X38850000Y-98650000D03*
X38850000Y-99750000D03*
X37550000Y-98650000D03*
X37550000Y-99750000D03*
X31825000Y-105600000D03*
X38994285Y-105700000D03*
%TO.N,/Load*%
X35300000Y-100700000D03*
X49812416Y-104837041D03*
X35850000Y-101250000D03*
%TO.N,/Vbat*%
X49625000Y-96775000D03*
X36350000Y-96950000D03*
X36250000Y-97750000D03*
%TO.N,/SEL*%
X34750000Y-99950000D03*
X38450000Y-102175000D03*
X31680000Y-103460000D03*
X34650000Y-98550000D03*
X31750000Y-98550000D03*
X48050000Y-100000000D03*
X34750000Y-99250000D03*
%TO.N,Net-(IC1-THERM)*%
X40699000Y-101750000D03*
%TO.N,Net-(IC1-~{PG})*%
X40699000Y-100695496D03*
X41212939Y-104596507D03*
%TD*%
%TA.AperFunction,Conductor*%
%TO.N,/SEL*%
G36*
X28015787Y-96020185D02*
G01*
X28061542Y-96072989D01*
X28071486Y-96142147D01*
X28051850Y-96193391D01*
X28043371Y-96206080D01*
X28043364Y-96206092D01*
X27967950Y-96388160D01*
X27967947Y-96388170D01*
X27929500Y-96581456D01*
X27929500Y-96581459D01*
X27929500Y-96778541D01*
X27929500Y-96778543D01*
X27929499Y-96778543D01*
X27967947Y-96971829D01*
X27967950Y-96971839D01*
X28043364Y-97153907D01*
X28043371Y-97153920D01*
X28152860Y-97317781D01*
X28152863Y-97317785D01*
X28292214Y-97457136D01*
X28292218Y-97457139D01*
X28461151Y-97570017D01*
X28460180Y-97571470D01*
X28504109Y-97614619D01*
X28519571Y-97682757D01*
X28495741Y-97748437D01*
X28494190Y-97750502D01*
X28489489Y-97756627D01*
X28413719Y-97887863D01*
X28385582Y-97992876D01*
X28374500Y-98034234D01*
X28374500Y-98185766D01*
X28394109Y-98258950D01*
X28413719Y-98332136D01*
X28436613Y-98371789D01*
X28489485Y-98463365D01*
X28596635Y-98570515D01*
X28727865Y-98646281D01*
X28874234Y-98685500D01*
X28874236Y-98685500D01*
X29025764Y-98685500D01*
X29025766Y-98685500D01*
X29172135Y-98646281D01*
X29303365Y-98570515D01*
X29410515Y-98463365D01*
X29486281Y-98332135D01*
X29525500Y-98185766D01*
X29525500Y-98034234D01*
X29486281Y-97887865D01*
X29481891Y-97880261D01*
X29473947Y-97866501D01*
X29457473Y-97798602D01*
X29480325Y-97732574D01*
X29535245Y-97689383D01*
X29581333Y-97680500D01*
X30128543Y-97680500D01*
X30284462Y-97649485D01*
X30321835Y-97642051D01*
X30503914Y-97566632D01*
X30667782Y-97457139D01*
X30807139Y-97317782D01*
X30908837Y-97165579D01*
X30962449Y-97120775D01*
X31031774Y-97112068D01*
X31094801Y-97142222D01*
X31115040Y-97165579D01*
X31128208Y-97185286D01*
X31128213Y-97185292D01*
X31239707Y-97296786D01*
X31239711Y-97296789D01*
X31370814Y-97384390D01*
X31370827Y-97384397D01*
X31479162Y-97429270D01*
X31516503Y-97444737D01*
X31671153Y-97475499D01*
X31671156Y-97475500D01*
X31671158Y-97475500D01*
X31828844Y-97475500D01*
X31828845Y-97475499D01*
X31983497Y-97444737D01*
X32129179Y-97384394D01*
X32260289Y-97296789D01*
X32371789Y-97185289D01*
X32459394Y-97054179D01*
X32519737Y-96908497D01*
X32550500Y-96753842D01*
X32550500Y-96596158D01*
X32550500Y-96596155D01*
X32550499Y-96596153D01*
X32519738Y-96441510D01*
X32519737Y-96441503D01*
X32518993Y-96439707D01*
X32459397Y-96295827D01*
X32459390Y-96295814D01*
X32390953Y-96193391D01*
X32370075Y-96126713D01*
X32388560Y-96059333D01*
X32440538Y-96012643D01*
X32494055Y-96000500D01*
X35927098Y-96000500D01*
X35994137Y-96020185D01*
X36039892Y-96072989D01*
X36049836Y-96142147D01*
X36020811Y-96205703D01*
X35974549Y-96239062D01*
X35970821Y-96240605D01*
X35970814Y-96240609D01*
X35839711Y-96328210D01*
X35839707Y-96328213D01*
X35728213Y-96439707D01*
X35728210Y-96439711D01*
X35640609Y-96570814D01*
X35640602Y-96570827D01*
X35580264Y-96716498D01*
X35580261Y-96716510D01*
X35549500Y-96871153D01*
X35549500Y-97028846D01*
X35580261Y-97183494D01*
X35580264Y-97183502D01*
X35587621Y-97201263D01*
X35595090Y-97270732D01*
X35576163Y-97317604D01*
X35540611Y-97370812D01*
X35540602Y-97370828D01*
X35480264Y-97516498D01*
X35480261Y-97516510D01*
X35449500Y-97671153D01*
X35449500Y-97828846D01*
X35480261Y-97983489D01*
X35480264Y-97983501D01*
X35540602Y-98129172D01*
X35540609Y-98129185D01*
X35628210Y-98260288D01*
X35628213Y-98260292D01*
X35739707Y-98371786D01*
X35739711Y-98371789D01*
X35870814Y-98459390D01*
X35870827Y-98459397D01*
X35949218Y-98491867D01*
X36016503Y-98519737D01*
X36171153Y-98550499D01*
X36171156Y-98550500D01*
X36171158Y-98550500D01*
X36328844Y-98550500D01*
X36328845Y-98550499D01*
X36483497Y-98519737D01*
X36578048Y-98480572D01*
X36647517Y-98473104D01*
X36709996Y-98504379D01*
X36745648Y-98564468D01*
X36749500Y-98595134D01*
X36749500Y-98728846D01*
X36780261Y-98883489D01*
X36780264Y-98883501D01*
X36840602Y-99029172D01*
X36840609Y-99029185D01*
X36908713Y-99131109D01*
X36929591Y-99197787D01*
X36911107Y-99265167D01*
X36908713Y-99268891D01*
X36840609Y-99370814D01*
X36840602Y-99370827D01*
X36780264Y-99516498D01*
X36780261Y-99516510D01*
X36749500Y-99671153D01*
X36749500Y-99828846D01*
X36780261Y-99983489D01*
X36780264Y-99983501D01*
X36840602Y-100129172D01*
X36840609Y-100129185D01*
X36928210Y-100260288D01*
X36928213Y-100260292D01*
X37039707Y-100371786D01*
X37039711Y-100371789D01*
X37170814Y-100459390D01*
X37170827Y-100459397D01*
X37306967Y-100515787D01*
X37316503Y-100519737D01*
X37455639Y-100547413D01*
X37471153Y-100550499D01*
X37471156Y-100550500D01*
X37471158Y-100550500D01*
X37628844Y-100550500D01*
X37628845Y-100550499D01*
X37783497Y-100519737D01*
X37929179Y-100459394D01*
X38060289Y-100371789D01*
X38072699Y-100359379D01*
X38112319Y-100319760D01*
X38173642Y-100286275D01*
X38243334Y-100291259D01*
X38287681Y-100319760D01*
X38339707Y-100371786D01*
X38339711Y-100371789D01*
X38470814Y-100459390D01*
X38470827Y-100459397D01*
X38606967Y-100515787D01*
X38616503Y-100519737D01*
X38755639Y-100547413D01*
X38771153Y-100550499D01*
X38771156Y-100550500D01*
X38771158Y-100550500D01*
X38928844Y-100550500D01*
X38928845Y-100550499D01*
X39083497Y-100519737D01*
X39112834Y-100507584D01*
X39140802Y-100496001D01*
X39229172Y-100459397D01*
X39229172Y-100459396D01*
X39229179Y-100459394D01*
X39360289Y-100371789D01*
X39471789Y-100260289D01*
X39559394Y-100129179D01*
X39619737Y-99983497D01*
X39650500Y-99828842D01*
X39650500Y-99671158D01*
X39650500Y-99671155D01*
X39647781Y-99657486D01*
X48374500Y-99657486D01*
X48374500Y-99842514D01*
X48381403Y-99886096D01*
X48403445Y-100025265D01*
X48460619Y-100201232D01*
X48460620Y-100201235D01*
X48544624Y-100366099D01*
X48628545Y-100481607D01*
X48652025Y-100547413D01*
X48636200Y-100615467D01*
X48602539Y-100653758D01*
X48517452Y-100717455D01*
X48431206Y-100832664D01*
X48431202Y-100832671D01*
X48380908Y-100967517D01*
X48375642Y-101016503D01*
X48374501Y-101027123D01*
X48374500Y-101027135D01*
X48374500Y-102472870D01*
X48374501Y-102472876D01*
X48380908Y-102532483D01*
X48431202Y-102667328D01*
X48431206Y-102667335D01*
X48517452Y-102782544D01*
X48517455Y-102782547D01*
X48632664Y-102868793D01*
X48632671Y-102868797D01*
X48767517Y-102919091D01*
X48767516Y-102919091D01*
X48774444Y-102919835D01*
X48827127Y-102925500D01*
X50272872Y-102925499D01*
X50332483Y-102919091D01*
X50467331Y-102868796D01*
X50582546Y-102782546D01*
X50668796Y-102667331D01*
X50719091Y-102532483D01*
X50725500Y-102472873D01*
X50725499Y-101027128D01*
X50719091Y-100967517D01*
X50706402Y-100933497D01*
X50668797Y-100832671D01*
X50668793Y-100832664D01*
X50582547Y-100717455D01*
X50497460Y-100653758D01*
X50455590Y-100597824D01*
X50450606Y-100528132D01*
X50471454Y-100481607D01*
X50555378Y-100366096D01*
X50639379Y-100201235D01*
X50696555Y-100025264D01*
X50725500Y-99842514D01*
X50725500Y-99657486D01*
X50696555Y-99474736D01*
X50639379Y-99298765D01*
X50639379Y-99298764D01*
X50587928Y-99197787D01*
X50555378Y-99133904D01*
X50446621Y-98984213D01*
X50315787Y-98853379D01*
X50166096Y-98744622D01*
X50135126Y-98728842D01*
X50001235Y-98660620D01*
X50001232Y-98660619D01*
X49825265Y-98603445D01*
X49733889Y-98588972D01*
X49642514Y-98574500D01*
X49457486Y-98574500D01*
X49396569Y-98584148D01*
X49274734Y-98603445D01*
X49098767Y-98660619D01*
X49098764Y-98660620D01*
X48933903Y-98744622D01*
X48848499Y-98806672D01*
X48784213Y-98853379D01*
X48784211Y-98853381D01*
X48784210Y-98853381D01*
X48653381Y-98984210D01*
X48653381Y-98984211D01*
X48653379Y-98984213D01*
X48620709Y-99029179D01*
X48544622Y-99133903D01*
X48460620Y-99298764D01*
X48460619Y-99298767D01*
X48403445Y-99474734D01*
X48392274Y-99545264D01*
X48374500Y-99657486D01*
X39647781Y-99657486D01*
X39619738Y-99516508D01*
X39619737Y-99516507D01*
X39619737Y-99516503D01*
X39580102Y-99420814D01*
X39559397Y-99370827D01*
X39559393Y-99370820D01*
X39553843Y-99362514D01*
X39491284Y-99268888D01*
X39470408Y-99202214D01*
X39488892Y-99134834D01*
X39491257Y-99131152D01*
X39559394Y-99029179D01*
X39619737Y-98883497D01*
X39650500Y-98728842D01*
X39650500Y-98571158D01*
X39650500Y-98571155D01*
X39650499Y-98571153D01*
X39650372Y-98570514D01*
X39619737Y-98416503D01*
X39619735Y-98416498D01*
X39559397Y-98270827D01*
X39559390Y-98270814D01*
X39471789Y-98139711D01*
X39471786Y-98139707D01*
X39360292Y-98028213D01*
X39360288Y-98028210D01*
X39229185Y-97940609D01*
X39229172Y-97940602D01*
X39083501Y-97880264D01*
X39083489Y-97880261D01*
X38928845Y-97849500D01*
X38928842Y-97849500D01*
X38771158Y-97849500D01*
X38771155Y-97849500D01*
X38616510Y-97880261D01*
X38616498Y-97880264D01*
X38470827Y-97940602D01*
X38470814Y-97940609D01*
X38339711Y-98028210D01*
X38339707Y-98028213D01*
X38287681Y-98080240D01*
X38226358Y-98113725D01*
X38156666Y-98108741D01*
X38112319Y-98080240D01*
X38060292Y-98028213D01*
X38060288Y-98028210D01*
X37929185Y-97940609D01*
X37929172Y-97940602D01*
X37783501Y-97880264D01*
X37783489Y-97880261D01*
X37628845Y-97849500D01*
X37628842Y-97849500D01*
X37471158Y-97849500D01*
X37471155Y-97849500D01*
X37316510Y-97880261D01*
X37316507Y-97880261D01*
X37221952Y-97919427D01*
X37152482Y-97926895D01*
X37090003Y-97895619D01*
X37054351Y-97835530D01*
X37050500Y-97804865D01*
X37050500Y-97671155D01*
X37050499Y-97671153D01*
X37019739Y-97516511D01*
X37019737Y-97516505D01*
X37019737Y-97516503D01*
X37012377Y-97498735D01*
X37004908Y-97429270D01*
X37023835Y-97382394D01*
X37059394Y-97329179D01*
X37119737Y-97183497D01*
X37150500Y-97028842D01*
X37150500Y-96871158D01*
X37150500Y-96871155D01*
X37150499Y-96871153D01*
X37138392Y-96810288D01*
X37119737Y-96716503D01*
X37111308Y-96696153D01*
X37059397Y-96570827D01*
X37059390Y-96570814D01*
X36971789Y-96439711D01*
X36971786Y-96439707D01*
X36860292Y-96328213D01*
X36860288Y-96328210D01*
X36729185Y-96240609D01*
X36729178Y-96240605D01*
X36725451Y-96239062D01*
X36671047Y-96195222D01*
X36648981Y-96128928D01*
X36666259Y-96061229D01*
X36717395Y-96013617D01*
X36772902Y-96000500D01*
X44292297Y-96000500D01*
X44359336Y-96020185D01*
X44405091Y-96072989D01*
X44415035Y-96142147D01*
X44413914Y-96148691D01*
X44399500Y-96221153D01*
X44399500Y-96378846D01*
X44430261Y-96533489D01*
X44430264Y-96533501D01*
X44490602Y-96679172D01*
X44490609Y-96679185D01*
X44578210Y-96810288D01*
X44578213Y-96810292D01*
X44689707Y-96921786D01*
X44689711Y-96921789D01*
X44820814Y-97009390D01*
X44820827Y-97009397D01*
X44966498Y-97069735D01*
X44966503Y-97069737D01*
X45121153Y-97100499D01*
X45121156Y-97100500D01*
X45121158Y-97100500D01*
X45278844Y-97100500D01*
X45278845Y-97100499D01*
X45433497Y-97069737D01*
X45579179Y-97009394D01*
X45710289Y-96921789D01*
X45821789Y-96810289D01*
X45909394Y-96679179D01*
X45969737Y-96533497D01*
X46000500Y-96378842D01*
X46000500Y-96221158D01*
X46000500Y-96221155D01*
X46000499Y-96221153D01*
X45986086Y-96148691D01*
X45992313Y-96079100D01*
X46035176Y-96023922D01*
X46101066Y-96000678D01*
X46107703Y-96000500D01*
X48968059Y-96000500D01*
X49035098Y-96020185D01*
X49080853Y-96072989D01*
X49090797Y-96142147D01*
X49061772Y-96205703D01*
X49055740Y-96212181D01*
X49003213Y-96264707D01*
X49003210Y-96264711D01*
X48915609Y-96395814D01*
X48915602Y-96395827D01*
X48855264Y-96541498D01*
X48855261Y-96541510D01*
X48824500Y-96696153D01*
X48824500Y-96853846D01*
X48855261Y-97008489D01*
X48855264Y-97008501D01*
X48915602Y-97154172D01*
X48915609Y-97154185D01*
X49003210Y-97285288D01*
X49003213Y-97285292D01*
X49114707Y-97396786D01*
X49114711Y-97396789D01*
X49245814Y-97484390D01*
X49245827Y-97484397D01*
X49391498Y-97544735D01*
X49391503Y-97544737D01*
X49525898Y-97571470D01*
X49546153Y-97575499D01*
X49546156Y-97575500D01*
X49546158Y-97575500D01*
X49703844Y-97575500D01*
X49703845Y-97575499D01*
X49858497Y-97544737D01*
X50004179Y-97484394D01*
X50135289Y-97396789D01*
X50246789Y-97285289D01*
X50334394Y-97154179D01*
X50394737Y-97008497D01*
X50425500Y-96853842D01*
X50425500Y-96696158D01*
X50425500Y-96696155D01*
X50425499Y-96696153D01*
X50422121Y-96679172D01*
X50394737Y-96541503D01*
X50394735Y-96541498D01*
X50334397Y-96395827D01*
X50334390Y-96395814D01*
X50246789Y-96264711D01*
X50246786Y-96264707D01*
X50194260Y-96212181D01*
X50160775Y-96150858D01*
X50165759Y-96081166D01*
X50207631Y-96025233D01*
X50273095Y-96000816D01*
X50281941Y-96000500D01*
X52161427Y-96000500D01*
X52228466Y-96020185D01*
X52274221Y-96072989D01*
X52284165Y-96142147D01*
X52255140Y-96205703D01*
X52235739Y-96223766D01*
X52217452Y-96237455D01*
X52131206Y-96352664D01*
X52131202Y-96352671D01*
X52080908Y-96487517D01*
X52074501Y-96547116D01*
X52074500Y-96547130D01*
X52074500Y-97992870D01*
X52074501Y-97992876D01*
X52080908Y-98052483D01*
X52131202Y-98187328D01*
X52131206Y-98187335D01*
X52217452Y-98302544D01*
X52217453Y-98302544D01*
X52217454Y-98302546D01*
X52222167Y-98306074D01*
X52302539Y-98366241D01*
X52344409Y-98422175D01*
X52349393Y-98491867D01*
X52328545Y-98538392D01*
X52244624Y-98653900D01*
X52160620Y-98818764D01*
X52160619Y-98818767D01*
X52103445Y-98994734D01*
X52074500Y-99177486D01*
X52074500Y-99362513D01*
X52103445Y-99545265D01*
X52160619Y-99721232D01*
X52160620Y-99721235D01*
X52222415Y-99842513D01*
X52244622Y-99886096D01*
X52353379Y-100035787D01*
X52484213Y-100166621D01*
X52633904Y-100275378D01*
X52714237Y-100316310D01*
X52798764Y-100359379D01*
X52798767Y-100359380D01*
X52836950Y-100371786D01*
X52974736Y-100416555D01*
X53157486Y-100445500D01*
X53157487Y-100445500D01*
X53342513Y-100445500D01*
X53342514Y-100445500D01*
X53525264Y-100416555D01*
X53701235Y-100359379D01*
X53866096Y-100275378D01*
X54015787Y-100166621D01*
X54038319Y-100144089D01*
X54099642Y-100110604D01*
X54169334Y-100115588D01*
X54225267Y-100157460D01*
X54249684Y-100222924D01*
X54250000Y-100231770D01*
X54250000Y-101568230D01*
X54230315Y-101635269D01*
X54177511Y-101681024D01*
X54108353Y-101690968D01*
X54044797Y-101661943D01*
X54038319Y-101655911D01*
X54015789Y-101633381D01*
X54015787Y-101633379D01*
X53866096Y-101524622D01*
X53859419Y-101521220D01*
X53701235Y-101440620D01*
X53701232Y-101440619D01*
X53525265Y-101383445D01*
X53433889Y-101368972D01*
X53342514Y-101354500D01*
X53157486Y-101354500D01*
X53096569Y-101364148D01*
X52974734Y-101383445D01*
X52798767Y-101440619D01*
X52798764Y-101440620D01*
X52633903Y-101524622D01*
X52573883Y-101568230D01*
X52484213Y-101633379D01*
X52484211Y-101633381D01*
X52484210Y-101633381D01*
X52353381Y-101764210D01*
X52353381Y-101764211D01*
X52353379Y-101764213D01*
X52306672Y-101828499D01*
X52244622Y-101913903D01*
X52160620Y-102078764D01*
X52160619Y-102078767D01*
X52103445Y-102254734D01*
X52074500Y-102437486D01*
X52074500Y-102622513D01*
X52103445Y-102805265D01*
X52160619Y-102981232D01*
X52160620Y-102981235D01*
X52244624Y-103146099D01*
X52328545Y-103261607D01*
X52352025Y-103327413D01*
X52336200Y-103395467D01*
X52302539Y-103433758D01*
X52217452Y-103497455D01*
X52131206Y-103612664D01*
X52131202Y-103612671D01*
X52080908Y-103747517D01*
X52074501Y-103807116D01*
X52074500Y-103807135D01*
X52074500Y-105252870D01*
X52074501Y-105252876D01*
X52080908Y-105312483D01*
X52131202Y-105447328D01*
X52131206Y-105447335D01*
X52217452Y-105562544D01*
X52217455Y-105562547D01*
X52332664Y-105648793D01*
X52332671Y-105648797D01*
X52467517Y-105699091D01*
X52467516Y-105699091D01*
X52474444Y-105699835D01*
X52527127Y-105705500D01*
X53972872Y-105705499D01*
X54032483Y-105699091D01*
X54082666Y-105680374D01*
X54152357Y-105675389D01*
X54213681Y-105708873D01*
X54247166Y-105770196D01*
X54250000Y-105796555D01*
X54250000Y-105875500D01*
X54230315Y-105942539D01*
X54177511Y-105988294D01*
X54126000Y-105999500D01*
X50600281Y-105999500D01*
X50533242Y-105979815D01*
X50487487Y-105927011D01*
X50477543Y-105857853D01*
X50478664Y-105851308D01*
X50507002Y-105708845D01*
X50507002Y-105551156D01*
X50507001Y-105551154D01*
X50486349Y-105447331D01*
X50476239Y-105396504D01*
X50472943Y-105388546D01*
X50465474Y-105319077D01*
X50484402Y-105272203D01*
X50521810Y-105216220D01*
X50582153Y-105070538D01*
X50612916Y-104915883D01*
X50612916Y-104758199D01*
X50612916Y-104758196D01*
X50612915Y-104758194D01*
X50597802Y-104682218D01*
X50582153Y-104603544D01*
X50582151Y-104603539D01*
X50521813Y-104457868D01*
X50521806Y-104457855D01*
X50434205Y-104326752D01*
X50434202Y-104326748D01*
X50322708Y-104215254D01*
X50322704Y-104215251D01*
X50191601Y-104127650D01*
X50191588Y-104127643D01*
X50045917Y-104067305D01*
X50045905Y-104067302D01*
X49891261Y-104036541D01*
X49891258Y-104036541D01*
X49733574Y-104036541D01*
X49733571Y-104036541D01*
X49578926Y-104067302D01*
X49578914Y-104067305D01*
X49433243Y-104127643D01*
X49433230Y-104127650D01*
X49302127Y-104215251D01*
X49302123Y-104215254D01*
X49190629Y-104326748D01*
X49190626Y-104326752D01*
X49103025Y-104457855D01*
X49103018Y-104457868D01*
X49042680Y-104603539D01*
X49042677Y-104603551D01*
X49011916Y-104758194D01*
X49011916Y-104915887D01*
X49042676Y-105070529D01*
X49042678Y-105070534D01*
X49042679Y-105070538D01*
X49045975Y-105078495D01*
X49053442Y-105147964D01*
X49034517Y-105194834D01*
X48997109Y-105250820D01*
X48997104Y-105250829D01*
X48936766Y-105396499D01*
X48936763Y-105396511D01*
X48906002Y-105551154D01*
X48906002Y-105551159D01*
X48906002Y-105708843D01*
X48906002Y-105708845D01*
X48906001Y-105708845D01*
X48934340Y-105851308D01*
X48928113Y-105920900D01*
X48885250Y-105976077D01*
X48819360Y-105999322D01*
X48812723Y-105999500D01*
X39901988Y-105999500D01*
X39834949Y-105979815D01*
X39789194Y-105927011D01*
X39779250Y-105857853D01*
X39780371Y-105851309D01*
X39794784Y-105778846D01*
X39794785Y-105778844D01*
X39794785Y-105621155D01*
X39794784Y-105621153D01*
X39792931Y-105611839D01*
X39764022Y-105466503D01*
X39764020Y-105466498D01*
X39703682Y-105320827D01*
X39703675Y-105320814D01*
X39616074Y-105189711D01*
X39616071Y-105189707D01*
X39504577Y-105078213D01*
X39504573Y-105078210D01*
X39373470Y-104990609D01*
X39373457Y-104990602D01*
X39227786Y-104930264D01*
X39227774Y-104930261D01*
X39073130Y-104899500D01*
X39073127Y-104899500D01*
X38915443Y-104899500D01*
X38915440Y-104899500D01*
X38760795Y-104930261D01*
X38760783Y-104930264D01*
X38615112Y-104990602D01*
X38615099Y-104990609D01*
X38483996Y-105078210D01*
X38483992Y-105078213D01*
X38372498Y-105189707D01*
X38372495Y-105189711D01*
X38284894Y-105320814D01*
X38284887Y-105320827D01*
X38224549Y-105466498D01*
X38224546Y-105466510D01*
X38193785Y-105621153D01*
X38193785Y-105778846D01*
X38208199Y-105851309D01*
X38201972Y-105920900D01*
X38159109Y-105976078D01*
X38093219Y-105999322D01*
X38086582Y-105999500D01*
X35132703Y-105999500D01*
X35065664Y-105979815D01*
X35019909Y-105927011D01*
X35009965Y-105857853D01*
X35011086Y-105851309D01*
X35025499Y-105778846D01*
X35025500Y-105778844D01*
X35025500Y-105621155D01*
X35025499Y-105621153D01*
X35023646Y-105611839D01*
X34994737Y-105466503D01*
X34994735Y-105466498D01*
X34934397Y-105320827D01*
X34934390Y-105320814D01*
X34846789Y-105189711D01*
X34846786Y-105189707D01*
X34735292Y-105078213D01*
X34735288Y-105078210D01*
X34604185Y-104990609D01*
X34604172Y-104990602D01*
X34458501Y-104930264D01*
X34458489Y-104930261D01*
X34303845Y-104899500D01*
X34303842Y-104899500D01*
X34146158Y-104899500D01*
X34146155Y-104899500D01*
X33991510Y-104930261D01*
X33991498Y-104930264D01*
X33845827Y-104990602D01*
X33845814Y-104990609D01*
X33714711Y-105078210D01*
X33714707Y-105078213D01*
X33603213Y-105189707D01*
X33603210Y-105189711D01*
X33515609Y-105320814D01*
X33515602Y-105320827D01*
X33455264Y-105466498D01*
X33455261Y-105466510D01*
X33424500Y-105621153D01*
X33424500Y-105778846D01*
X33438914Y-105851309D01*
X33432687Y-105920900D01*
X33389824Y-105976078D01*
X33323934Y-105999322D01*
X33317297Y-105999500D01*
X32711555Y-105999500D01*
X32644516Y-105979815D01*
X32598761Y-105927011D01*
X32588817Y-105857853D01*
X32593840Y-105839588D01*
X32592969Y-105839324D01*
X32594731Y-105833509D01*
X32594737Y-105833497D01*
X32625500Y-105678842D01*
X32625500Y-105521158D01*
X32625500Y-105521155D01*
X32625499Y-105521153D01*
X32614627Y-105466498D01*
X32594737Y-105366503D01*
X32575093Y-105319077D01*
X32534397Y-105220827D01*
X32534390Y-105220814D01*
X32446789Y-105089711D01*
X32446786Y-105089707D01*
X32335292Y-104978213D01*
X32335288Y-104978210D01*
X32204185Y-104890609D01*
X32204172Y-104890602D01*
X32058501Y-104830264D01*
X32058489Y-104830261D01*
X31903845Y-104799500D01*
X31903842Y-104799500D01*
X31746158Y-104799500D01*
X31746155Y-104799500D01*
X31591510Y-104830261D01*
X31591498Y-104830264D01*
X31445827Y-104890602D01*
X31445814Y-104890609D01*
X31314711Y-104978210D01*
X31201335Y-105091586D01*
X31140012Y-105125070D01*
X31070320Y-105120086D01*
X31014387Y-105078214D01*
X30994569Y-105033769D01*
X30993820Y-105033997D01*
X30992049Y-105028160D01*
X30916635Y-104846092D01*
X30916628Y-104846079D01*
X30807139Y-104682218D01*
X30807136Y-104682214D01*
X30667785Y-104542863D01*
X30667781Y-104542860D01*
X30630067Y-104517660D01*
X40412439Y-104517660D01*
X40412439Y-104675353D01*
X40443200Y-104829996D01*
X40443203Y-104830008D01*
X40503541Y-104975679D01*
X40503548Y-104975692D01*
X40591149Y-105106795D01*
X40591152Y-105106799D01*
X40702646Y-105218293D01*
X40702650Y-105218296D01*
X40833753Y-105305897D01*
X40833766Y-105305904D01*
X40979437Y-105366242D01*
X40979442Y-105366244D01*
X41134092Y-105397006D01*
X41134095Y-105397007D01*
X41134097Y-105397007D01*
X41291783Y-105397007D01*
X41291784Y-105397006D01*
X41446436Y-105366244D01*
X41592118Y-105305901D01*
X41723228Y-105218296D01*
X41834728Y-105106796D01*
X41922333Y-104975686D01*
X41982676Y-104830004D01*
X42013439Y-104675349D01*
X42013439Y-104517665D01*
X42013439Y-104517662D01*
X42013438Y-104517660D01*
X41982676Y-104363010D01*
X41980579Y-104357947D01*
X41922336Y-104217334D01*
X41922329Y-104217321D01*
X41834728Y-104086218D01*
X41834725Y-104086214D01*
X41723231Y-103974720D01*
X41723227Y-103974717D01*
X41592124Y-103887116D01*
X41592111Y-103887109D01*
X41446440Y-103826771D01*
X41446428Y-103826768D01*
X41291784Y-103796007D01*
X41291781Y-103796007D01*
X41134097Y-103796007D01*
X41134094Y-103796007D01*
X40979449Y-103826768D01*
X40979437Y-103826771D01*
X40833766Y-103887109D01*
X40833753Y-103887116D01*
X40702650Y-103974717D01*
X40702646Y-103974720D01*
X40591152Y-104086214D01*
X40591149Y-104086218D01*
X40503548Y-104217321D01*
X40503541Y-104217334D01*
X40443203Y-104363005D01*
X40443200Y-104363017D01*
X40412439Y-104517660D01*
X30630067Y-104517660D01*
X30503920Y-104433371D01*
X30503907Y-104433364D01*
X30321839Y-104357950D01*
X30321829Y-104357947D01*
X30128543Y-104319500D01*
X30128541Y-104319500D01*
X29581333Y-104319500D01*
X29514294Y-104299815D01*
X29468539Y-104247011D01*
X29458595Y-104177853D01*
X29473947Y-104133499D01*
X29486278Y-104112140D01*
X29486277Y-104112140D01*
X29486281Y-104112135D01*
X29525500Y-103965766D01*
X29525500Y-103814234D01*
X29486281Y-103667865D01*
X29410515Y-103536635D01*
X29303365Y-103429485D01*
X29207651Y-103374224D01*
X29172136Y-103353719D01*
X29098950Y-103334109D01*
X29025766Y-103314500D01*
X28874234Y-103314500D01*
X28727863Y-103353719D01*
X28596635Y-103429485D01*
X28596632Y-103429487D01*
X28489487Y-103536632D01*
X28489485Y-103536635D01*
X28413719Y-103667863D01*
X28379384Y-103796007D01*
X28374500Y-103814234D01*
X28374500Y-103965766D01*
X28376899Y-103974718D01*
X28413719Y-104112136D01*
X28451602Y-104177750D01*
X28489485Y-104243365D01*
X28489488Y-104243368D01*
X28494188Y-104249493D01*
X28519383Y-104314662D01*
X28505346Y-104383107D01*
X28460510Y-104429023D01*
X28461151Y-104429983D01*
X28456612Y-104433015D01*
X28456533Y-104433097D01*
X28456296Y-104433226D01*
X28292218Y-104542860D01*
X28292214Y-104542863D01*
X28152863Y-104682214D01*
X28152860Y-104682218D01*
X28043371Y-104846079D01*
X28043364Y-104846092D01*
X27967950Y-105028160D01*
X27967947Y-105028170D01*
X27929500Y-105221456D01*
X27929500Y-105221459D01*
X27929500Y-105418541D01*
X27929500Y-105418543D01*
X27929499Y-105418543D01*
X27967947Y-105611829D01*
X27967950Y-105611839D01*
X28043364Y-105793907D01*
X28043371Y-105793919D01*
X28051850Y-105806609D01*
X28072728Y-105873286D01*
X28054244Y-105940666D01*
X28002265Y-105987357D01*
X27948748Y-105999500D01*
X26581252Y-105999500D01*
X26514213Y-105979815D01*
X26468458Y-105927011D01*
X26458514Y-105857853D01*
X26478150Y-105806609D01*
X26484867Y-105796555D01*
X26486632Y-105793914D01*
X26562051Y-105611835D01*
X26580089Y-105521153D01*
X26600500Y-105418543D01*
X26600500Y-105221456D01*
X26562052Y-105028170D01*
X26562051Y-105028169D01*
X26562051Y-105028165D01*
X26546492Y-104990602D01*
X26486635Y-104846092D01*
X26486628Y-104846079D01*
X26377139Y-104682218D01*
X26377136Y-104682214D01*
X26237785Y-104542863D01*
X26237781Y-104542860D01*
X26073920Y-104433371D01*
X26073907Y-104433364D01*
X25891839Y-104357950D01*
X25891829Y-104357947D01*
X25698543Y-104319500D01*
X25698541Y-104319500D01*
X24901459Y-104319500D01*
X24901457Y-104319500D01*
X24708170Y-104357947D01*
X24708165Y-104357949D01*
X24671951Y-104372949D01*
X24602482Y-104380416D01*
X24540003Y-104349141D01*
X24504351Y-104289051D01*
X24500500Y-104258387D01*
X24500500Y-99721153D01*
X32999500Y-99721153D01*
X32999500Y-99878846D01*
X33030261Y-100033489D01*
X33030264Y-100033501D01*
X33090602Y-100179172D01*
X33090609Y-100179185D01*
X33178210Y-100310288D01*
X33178213Y-100310292D01*
X33289707Y-100421786D01*
X33289711Y-100421789D01*
X33420814Y-100509390D01*
X33420827Y-100509397D01*
X33520060Y-100550500D01*
X33566503Y-100569737D01*
X33689607Y-100594224D01*
X33721153Y-100600499D01*
X33721156Y-100600500D01*
X33721158Y-100600500D01*
X33878844Y-100600500D01*
X33878845Y-100600499D01*
X34033497Y-100569737D01*
X34179179Y-100509394D01*
X34310289Y-100421789D01*
X34310293Y-100421784D01*
X34314999Y-100417924D01*
X34316601Y-100419877D01*
X34368199Y-100391668D01*
X34437893Y-100396616D01*
X34493848Y-100438458D01*
X34518299Y-100503909D01*
X34516237Y-100537011D01*
X34499500Y-100621153D01*
X34499500Y-100778846D01*
X34530261Y-100933489D01*
X34530264Y-100933501D01*
X34590602Y-101079172D01*
X34590609Y-101079185D01*
X34678210Y-101210288D01*
X34678213Y-101210292D01*
X34789707Y-101321786D01*
X34789711Y-101321789D01*
X34920814Y-101409390D01*
X34920818Y-101409392D01*
X34920821Y-101409394D01*
X35028782Y-101454112D01*
X35083182Y-101497951D01*
X35095888Y-101521220D01*
X35140602Y-101629172D01*
X35140609Y-101629185D01*
X35228210Y-101760288D01*
X35228213Y-101760292D01*
X35339707Y-101871786D01*
X35339711Y-101871789D01*
X35470814Y-101959390D01*
X35470827Y-101959397D01*
X35616498Y-102019735D01*
X35616503Y-102019737D01*
X35771153Y-102050499D01*
X35771156Y-102050500D01*
X35771158Y-102050500D01*
X35928844Y-102050500D01*
X35928845Y-102050499D01*
X36083497Y-102019737D01*
X36229179Y-101959394D01*
X36360289Y-101871789D01*
X36471789Y-101760289D01*
X36559394Y-101629179D01*
X36619737Y-101483497D01*
X36650500Y-101328842D01*
X36650500Y-101171158D01*
X36650500Y-101171155D01*
X36650499Y-101171153D01*
X36632204Y-101079179D01*
X36619737Y-101016503D01*
X36619735Y-101016498D01*
X36559397Y-100870827D01*
X36559390Y-100870814D01*
X36471789Y-100739711D01*
X36471786Y-100739707D01*
X36360292Y-100628213D01*
X36360288Y-100628210D01*
X36342986Y-100616649D01*
X39898500Y-100616649D01*
X39898500Y-100774342D01*
X39929261Y-100928985D01*
X39929264Y-100928997D01*
X39989602Y-101074668D01*
X39989609Y-101074681D01*
X40042513Y-101153857D01*
X40063391Y-101220535D01*
X40044906Y-101287915D01*
X40042513Y-101291639D01*
X39989609Y-101370814D01*
X39989602Y-101370827D01*
X39929264Y-101516498D01*
X39929261Y-101516510D01*
X39898500Y-101671153D01*
X39898500Y-101828846D01*
X39929261Y-101983489D01*
X39929264Y-101983501D01*
X39989602Y-102129172D01*
X39989609Y-102129185D01*
X40077210Y-102260288D01*
X40077213Y-102260292D01*
X40188707Y-102371786D01*
X40188711Y-102371789D01*
X40319814Y-102459390D01*
X40319827Y-102459397D01*
X40465498Y-102519735D01*
X40465503Y-102519737D01*
X40620153Y-102550499D01*
X40620156Y-102550500D01*
X40620158Y-102550500D01*
X40777844Y-102550500D01*
X40777845Y-102550499D01*
X40932497Y-102519737D01*
X41078179Y-102459394D01*
X41209289Y-102371789D01*
X41320789Y-102260289D01*
X41408394Y-102129179D01*
X41468737Y-101983497D01*
X41499500Y-101828842D01*
X41499500Y-101671158D01*
X41499500Y-101671155D01*
X41499499Y-101671153D01*
X41468738Y-101516510D01*
X41468737Y-101516503D01*
X41437306Y-101440621D01*
X41408397Y-101370827D01*
X41408393Y-101370820D01*
X41408389Y-101370814D01*
X41355485Y-101291637D01*
X41334608Y-101224962D01*
X41353092Y-101157582D01*
X41355463Y-101153890D01*
X41408394Y-101074675D01*
X41468737Y-100928993D01*
X41499500Y-100774338D01*
X41499500Y-100616654D01*
X41499500Y-100616651D01*
X41499499Y-100616649D01*
X41490168Y-100569738D01*
X41468737Y-100461999D01*
X41452082Y-100421789D01*
X41408397Y-100316323D01*
X41408390Y-100316310D01*
X41320789Y-100185207D01*
X41320786Y-100185203D01*
X41209292Y-100073709D01*
X41209288Y-100073706D01*
X41078185Y-99986105D01*
X41078172Y-99986098D01*
X40932501Y-99925760D01*
X40932489Y-99925757D01*
X40777845Y-99894996D01*
X40777842Y-99894996D01*
X40620158Y-99894996D01*
X40620155Y-99894996D01*
X40465510Y-99925757D01*
X40465498Y-99925760D01*
X40319827Y-99986098D01*
X40319814Y-99986105D01*
X40188711Y-100073706D01*
X40188707Y-100073709D01*
X40077213Y-100185203D01*
X40077210Y-100185207D01*
X39989609Y-100316310D01*
X39989602Y-100316323D01*
X39929264Y-100461994D01*
X39929261Y-100462006D01*
X39898500Y-100616649D01*
X36342986Y-100616649D01*
X36229185Y-100540609D01*
X36229172Y-100540602D01*
X36121220Y-100495888D01*
X36066816Y-100452048D01*
X36054115Y-100428789D01*
X36009394Y-100320821D01*
X36009392Y-100320818D01*
X36009390Y-100320814D01*
X35921789Y-100189711D01*
X35921786Y-100189707D01*
X35810292Y-100078213D01*
X35810288Y-100078210D01*
X35679185Y-99990609D01*
X35679172Y-99990602D01*
X35533501Y-99930264D01*
X35533489Y-99930261D01*
X35378845Y-99899500D01*
X35378842Y-99899500D01*
X35221158Y-99899500D01*
X35221155Y-99899500D01*
X35066510Y-99930261D01*
X35066498Y-99930264D01*
X34920827Y-99990602D01*
X34920814Y-99990609D01*
X34789711Y-100078210D01*
X34785001Y-100082076D01*
X34783413Y-100080141D01*
X34731674Y-100108359D01*
X34661985Y-100103338D01*
X34606073Y-100061438D01*
X34581690Y-99995960D01*
X34583761Y-99962990D01*
X34600500Y-99878842D01*
X34600500Y-99721158D01*
X34600500Y-99721155D01*
X34600499Y-99721153D01*
X34569738Y-99566510D01*
X34569737Y-99566503D01*
X34560940Y-99545264D01*
X34509397Y-99420827D01*
X34509390Y-99420814D01*
X34421789Y-99289711D01*
X34421786Y-99289707D01*
X34310292Y-99178213D01*
X34310288Y-99178210D01*
X34179185Y-99090609D01*
X34179172Y-99090602D01*
X34033501Y-99030264D01*
X34033489Y-99030261D01*
X33878845Y-98999500D01*
X33878842Y-98999500D01*
X33721158Y-98999500D01*
X33721155Y-98999500D01*
X33566510Y-99030261D01*
X33566498Y-99030264D01*
X33420827Y-99090602D01*
X33420814Y-99090609D01*
X33289711Y-99178210D01*
X33289707Y-99178213D01*
X33178213Y-99289707D01*
X33178210Y-99289711D01*
X33090609Y-99420814D01*
X33090602Y-99420827D01*
X33030264Y-99566498D01*
X33030261Y-99566510D01*
X32999500Y-99721153D01*
X24500500Y-99721153D01*
X24500500Y-97741612D01*
X24520185Y-97674573D01*
X24572989Y-97628818D01*
X24642147Y-97618874D01*
X24671948Y-97627049D01*
X24708165Y-97642051D01*
X24708169Y-97642051D01*
X24708170Y-97642052D01*
X24901456Y-97680500D01*
X24901459Y-97680500D01*
X25698543Y-97680500D01*
X25854462Y-97649485D01*
X25891835Y-97642051D01*
X26073914Y-97566632D01*
X26237782Y-97457139D01*
X26377139Y-97317782D01*
X26486632Y-97153914D01*
X26562051Y-96971835D01*
X26585522Y-96853842D01*
X26600500Y-96778543D01*
X26600500Y-96581456D01*
X26562052Y-96388170D01*
X26562051Y-96388169D01*
X26562051Y-96388165D01*
X26537218Y-96328213D01*
X26486635Y-96206092D01*
X26486633Y-96206088D01*
X26486632Y-96206086D01*
X26479373Y-96195222D01*
X26478150Y-96193391D01*
X26457272Y-96126714D01*
X26475756Y-96059334D01*
X26527735Y-96012643D01*
X26581252Y-96000500D01*
X27948748Y-96000500D01*
X28015787Y-96020185D01*
G37*
%TD.AperFunction*%
%TD*%
M02*
