%TF.GenerationSoftware,KiCad,Pcbnew,9.0.4*%
%TF.CreationDate,2025-09-14T00:07:06+02:00*%
%TF.ProjectId,charging-module-slim,63686172-6769-46e6-972d-6d6f64756c65,rev?*%
%TF.SameCoordinates,Original*%
%TF.FileFunction,Copper,L3,Inr*%
%TF.FilePolarity,Positive*%
%FSLAX46Y46*%
G04 Gerber Fmt 4.6, Leading zero omitted, Abs format (unit mm)*
G04 Created by KiCad (PCBNEW 9.0.4) date 2025-09-14 00:07:06*
%MOMM*%
%LPD*%
G01*
G04 APERTURE LIST*
%TA.AperFunction,ComponentPad*%
%ADD10R,1.350000X1.350000*%
%TD*%
%TA.AperFunction,ComponentPad*%
%ADD11C,1.350000*%
%TD*%
%TA.AperFunction,HeatsinkPad*%
%ADD12O,2.100000X1.000000*%
%TD*%
%TA.AperFunction,HeatsinkPad*%
%ADD13O,1.600000X1.000000*%
%TD*%
%TA.AperFunction,ViaPad*%
%ADD14C,0.600000*%
%TD*%
G04 APERTURE END LIST*
D10*
%TO.N,Net-(IC1-THERM)*%
%TO.C,TH1*%
X49550000Y-101750000D03*
D11*
%TO.N,GND*%
X49550000Y-99750000D03*
%TD*%
D12*
%TO.N,GND*%
%TO.C,J2*%
X29480000Y-96680000D03*
D13*
X25300000Y-96680000D03*
D12*
X29480000Y-105320000D03*
D13*
X25300000Y-105320000D03*
%TD*%
D10*
%TO.N,/Vbat*%
%TO.C,J1*%
X53250000Y-97270000D03*
D11*
%TO.N,GND*%
X53250000Y-99270000D03*
%TD*%
D10*
%TO.N,/Load*%
%TO.C,J3*%
X53250000Y-104530000D03*
D11*
%TO.N,GND*%
X53250000Y-102530000D03*
%TD*%
D14*
%TO.N,GND*%
X31750000Y-96675000D03*
X34225000Y-105700000D03*
X33800000Y-99800000D03*
X45200000Y-96300000D03*
X49706502Y-105630001D03*
X38850000Y-98650000D03*
X38850000Y-99750000D03*
X37550000Y-98650000D03*
X37550000Y-99750000D03*
X31825000Y-105600000D03*
X38994285Y-105700000D03*
%TO.N,/Load*%
X35300000Y-100700000D03*
X49812416Y-104837041D03*
X35850000Y-101250000D03*
%TO.N,/Vbat*%
X49625000Y-96775000D03*
X36350000Y-96950000D03*
X36250000Y-97750000D03*
%TO.N,/SEL*%
X34750000Y-99950000D03*
X38450000Y-102175000D03*
X31680000Y-103460000D03*
X34650000Y-98550000D03*
X31750000Y-98550000D03*
X48050000Y-100000000D03*
X34750000Y-99250000D03*
%TO.N,Net-(IC1-THERM)*%
X40699000Y-101750000D03*
%TO.N,Net-(IC1-~{PG})*%
X40699000Y-100695496D03*
X41212939Y-104596507D03*
%TD*%
%TA.AperFunction,Conductor*%
%TO.N,/Load*%
G36*
X32959436Y-99519685D02*
G01*
X33005191Y-99572489D01*
X33015135Y-99641647D01*
X33014014Y-99648192D01*
X32999500Y-99721155D01*
X32999500Y-99878846D01*
X33030261Y-100033489D01*
X33030264Y-100033501D01*
X33090602Y-100179172D01*
X33090609Y-100179185D01*
X33178210Y-100310288D01*
X33178213Y-100310292D01*
X33289707Y-100421786D01*
X33289711Y-100421789D01*
X33420814Y-100509390D01*
X33420827Y-100509397D01*
X33520060Y-100550500D01*
X33566503Y-100569737D01*
X33689607Y-100594224D01*
X33721153Y-100600499D01*
X33721156Y-100600500D01*
X33721158Y-100600500D01*
X33878844Y-100600500D01*
X33878845Y-100600499D01*
X34033497Y-100569737D01*
X34101314Y-100541645D01*
X34170782Y-100534177D01*
X34233261Y-100565452D01*
X34236447Y-100568526D01*
X34239707Y-100571786D01*
X34239711Y-100571789D01*
X34370814Y-100659390D01*
X34370827Y-100659397D01*
X34510991Y-100717454D01*
X34516503Y-100719737D01*
X34671153Y-100750499D01*
X34671156Y-100750500D01*
X34671158Y-100750500D01*
X34828844Y-100750500D01*
X34828845Y-100750499D01*
X34983497Y-100719737D01*
X35129179Y-100659394D01*
X35193151Y-100616649D01*
X39898500Y-100616649D01*
X39898500Y-100774342D01*
X39929261Y-100928985D01*
X39929264Y-100928997D01*
X39989602Y-101074668D01*
X39989609Y-101074681D01*
X40042513Y-101153857D01*
X40063391Y-101220535D01*
X40044906Y-101287915D01*
X40042513Y-101291639D01*
X39989609Y-101370814D01*
X39989602Y-101370827D01*
X39929264Y-101516498D01*
X39929261Y-101516510D01*
X39898500Y-101671153D01*
X39898500Y-101828846D01*
X39929261Y-101983489D01*
X39929264Y-101983501D01*
X39989602Y-102129172D01*
X39989609Y-102129185D01*
X40077210Y-102260288D01*
X40077213Y-102260292D01*
X40188707Y-102371786D01*
X40188711Y-102371789D01*
X40319814Y-102459390D01*
X40319827Y-102459397D01*
X40465498Y-102519735D01*
X40465503Y-102519737D01*
X40620153Y-102550499D01*
X40620156Y-102550500D01*
X40620158Y-102550500D01*
X40777844Y-102550500D01*
X40777845Y-102550499D01*
X40932497Y-102519737D01*
X41078179Y-102459394D01*
X41209289Y-102371789D01*
X41320789Y-102260289D01*
X41408394Y-102129179D01*
X41468737Y-101983497D01*
X41499500Y-101828842D01*
X41499500Y-101671158D01*
X41499500Y-101671155D01*
X41499499Y-101671153D01*
X41476039Y-101553213D01*
X41468737Y-101516503D01*
X41447655Y-101465606D01*
X41408397Y-101370827D01*
X41408393Y-101370820D01*
X41408389Y-101370814D01*
X41355485Y-101291637D01*
X41334608Y-101224962D01*
X41353092Y-101157582D01*
X41355463Y-101153890D01*
X41408394Y-101074675D01*
X41468737Y-100928993D01*
X41499500Y-100774338D01*
X41499500Y-100616654D01*
X41499500Y-100616651D01*
X41499499Y-100616649D01*
X41490168Y-100569738D01*
X41468737Y-100461999D01*
X41452082Y-100421789D01*
X41408397Y-100316323D01*
X41408390Y-100316310D01*
X41320789Y-100185207D01*
X41320786Y-100185203D01*
X41209292Y-100073709D01*
X41209288Y-100073706D01*
X41078185Y-99986105D01*
X41078172Y-99986098D01*
X40932501Y-99925760D01*
X40932489Y-99925757D01*
X40777845Y-99894996D01*
X40777842Y-99894996D01*
X40620158Y-99894996D01*
X40620155Y-99894996D01*
X40465510Y-99925757D01*
X40465498Y-99925760D01*
X40319827Y-99986098D01*
X40319814Y-99986105D01*
X40188711Y-100073706D01*
X40188707Y-100073709D01*
X40077213Y-100185203D01*
X40077210Y-100185207D01*
X39989609Y-100316310D01*
X39989602Y-100316323D01*
X39929264Y-100461994D01*
X39929261Y-100462006D01*
X39898500Y-100616649D01*
X35193151Y-100616649D01*
X35260289Y-100571789D01*
X35371789Y-100460289D01*
X35459394Y-100329179D01*
X35463296Y-100319760D01*
X35505417Y-100218068D01*
X35519737Y-100183497D01*
X35550500Y-100028842D01*
X35550500Y-99871158D01*
X35550500Y-99871155D01*
X35550499Y-99871153D01*
X35544802Y-99842513D01*
X35519737Y-99716503D01*
X35501077Y-99671453D01*
X35501077Y-99671452D01*
X35493608Y-99601982D01*
X35524884Y-99539503D01*
X35584973Y-99503852D01*
X35615638Y-99500000D01*
X36632451Y-99500000D01*
X36699490Y-99519685D01*
X36745245Y-99572489D01*
X36755189Y-99641647D01*
X36754068Y-99648192D01*
X36749500Y-99671155D01*
X36749500Y-99828846D01*
X36780261Y-99983489D01*
X36780264Y-99983501D01*
X36840602Y-100129172D01*
X36840609Y-100129185D01*
X36928210Y-100260288D01*
X36928213Y-100260292D01*
X37039707Y-100371786D01*
X37039711Y-100371789D01*
X37170814Y-100459390D01*
X37170827Y-100459397D01*
X37306967Y-100515787D01*
X37316503Y-100519737D01*
X37471153Y-100550499D01*
X37471156Y-100550500D01*
X37471158Y-100550500D01*
X37628844Y-100550500D01*
X37628845Y-100550499D01*
X37783497Y-100519737D01*
X37929179Y-100459394D01*
X38060289Y-100371789D01*
X38072699Y-100359379D01*
X38112319Y-100319760D01*
X38173642Y-100286275D01*
X38243334Y-100291259D01*
X38287681Y-100319760D01*
X38339707Y-100371786D01*
X38339711Y-100371789D01*
X38470814Y-100459390D01*
X38470827Y-100459397D01*
X38606967Y-100515787D01*
X38616503Y-100519737D01*
X38771153Y-100550499D01*
X38771156Y-100550500D01*
X38771158Y-100550500D01*
X38928844Y-100550500D01*
X38928845Y-100550499D01*
X39083497Y-100519737D01*
X39112834Y-100507584D01*
X39140802Y-100496001D01*
X39229172Y-100459397D01*
X39229172Y-100459396D01*
X39229179Y-100459394D01*
X39360289Y-100371789D01*
X39471789Y-100260289D01*
X39559394Y-100129179D01*
X39619737Y-99983497D01*
X39650500Y-99828842D01*
X39650500Y-99671158D01*
X39650500Y-99671155D01*
X39645932Y-99648192D01*
X39652159Y-99578601D01*
X39695021Y-99523423D01*
X39760911Y-99500178D01*
X39767549Y-99500000D01*
X47205073Y-99500000D01*
X47272112Y-99519685D01*
X47317867Y-99572489D01*
X47327811Y-99641647D01*
X47319634Y-99671453D01*
X47280263Y-99766502D01*
X47280261Y-99766510D01*
X47249500Y-99921153D01*
X47249500Y-100078846D01*
X47280261Y-100233489D01*
X47280264Y-100233501D01*
X47340602Y-100379172D01*
X47340609Y-100379185D01*
X47428210Y-100510288D01*
X47428213Y-100510292D01*
X47539707Y-100621786D01*
X47539711Y-100621789D01*
X47670814Y-100709390D01*
X47670827Y-100709397D01*
X47770060Y-100750500D01*
X47816503Y-100769737D01*
X47971153Y-100800499D01*
X47971156Y-100800500D01*
X47971158Y-100800500D01*
X48128844Y-100800500D01*
X48250317Y-100776337D01*
X48319909Y-100782564D01*
X48375086Y-100825427D01*
X48398331Y-100891316D01*
X48390692Y-100941284D01*
X48380909Y-100967515D01*
X48380908Y-100967516D01*
X48374501Y-101027116D01*
X48374501Y-101027123D01*
X48374500Y-101027135D01*
X48374500Y-102472870D01*
X48374501Y-102472876D01*
X48380908Y-102532483D01*
X48431202Y-102667328D01*
X48431206Y-102667335D01*
X48517452Y-102782544D01*
X48517455Y-102782547D01*
X48632664Y-102868793D01*
X48632671Y-102868797D01*
X48767517Y-102919091D01*
X48767516Y-102919091D01*
X48774444Y-102919835D01*
X48827127Y-102925500D01*
X50272872Y-102925499D01*
X50332483Y-102919091D01*
X50467331Y-102868796D01*
X50582546Y-102782546D01*
X50668796Y-102667331D01*
X50719091Y-102532483D01*
X50725500Y-102472873D01*
X50725499Y-101027128D01*
X50719091Y-100967517D01*
X50719090Y-100967515D01*
X50668797Y-100832671D01*
X50668793Y-100832664D01*
X50582547Y-100717455D01*
X50497460Y-100653758D01*
X50455590Y-100597824D01*
X50450606Y-100528132D01*
X50471452Y-100481609D01*
X50555378Y-100366096D01*
X50639379Y-100201235D01*
X50696555Y-100025264D01*
X50725500Y-99842514D01*
X50725500Y-99657486D01*
X50723268Y-99643397D01*
X50732221Y-99574108D01*
X50777216Y-99520654D01*
X50843967Y-99500013D01*
X50845741Y-99500000D01*
X50876000Y-99500000D01*
X50943039Y-99519685D01*
X50988794Y-99572489D01*
X51000000Y-99624000D01*
X51000000Y-102000000D01*
X52015542Y-102000000D01*
X52082581Y-102019685D01*
X52128336Y-102072489D01*
X52138280Y-102141647D01*
X52133473Y-102162318D01*
X52103445Y-102254734D01*
X52102565Y-102260289D01*
X52074500Y-102437486D01*
X52074500Y-102622514D01*
X52085231Y-102690264D01*
X52103445Y-102805265D01*
X52160619Y-102981232D01*
X52160620Y-102981235D01*
X52244622Y-103146096D01*
X52353379Y-103295787D01*
X52484213Y-103426621D01*
X52633904Y-103535378D01*
X52714763Y-103576577D01*
X52798764Y-103619379D01*
X52798767Y-103619380D01*
X52886750Y-103647967D01*
X52974736Y-103676555D01*
X53157486Y-103705500D01*
X53157487Y-103705500D01*
X53342513Y-103705500D01*
X53342514Y-103705500D01*
X53525264Y-103676555D01*
X53701235Y-103619379D01*
X53866096Y-103535378D01*
X54015787Y-103426621D01*
X54038319Y-103404089D01*
X54099642Y-103370604D01*
X54169334Y-103375588D01*
X54225267Y-103417460D01*
X54249684Y-103482924D01*
X54250000Y-103491770D01*
X54250000Y-105875500D01*
X54230315Y-105942539D01*
X54177511Y-105988294D01*
X54126000Y-105999500D01*
X50600281Y-105999500D01*
X50533242Y-105979815D01*
X50487487Y-105927011D01*
X50477543Y-105857853D01*
X50478664Y-105851308D01*
X50507002Y-105708845D01*
X50507002Y-105551156D01*
X50507001Y-105551154D01*
X50476339Y-105397007D01*
X50476239Y-105396504D01*
X50463810Y-105366498D01*
X50415899Y-105250828D01*
X50415892Y-105250815D01*
X50328291Y-105119712D01*
X50328288Y-105119708D01*
X50216794Y-105008214D01*
X50216790Y-105008211D01*
X50085687Y-104920610D01*
X50085674Y-104920603D01*
X49940003Y-104860265D01*
X49939991Y-104860262D01*
X49785347Y-104829501D01*
X49785344Y-104829501D01*
X49627660Y-104829501D01*
X49627657Y-104829501D01*
X49473012Y-104860262D01*
X49473000Y-104860265D01*
X49327329Y-104920603D01*
X49327316Y-104920610D01*
X49196213Y-105008211D01*
X49196209Y-105008214D01*
X49084715Y-105119708D01*
X49084712Y-105119712D01*
X48997111Y-105250815D01*
X48997104Y-105250828D01*
X48936766Y-105396499D01*
X48936763Y-105396511D01*
X48906002Y-105551154D01*
X48906002Y-105551159D01*
X48906002Y-105708843D01*
X48906002Y-105708845D01*
X48906001Y-105708845D01*
X48934340Y-105851308D01*
X48928113Y-105920900D01*
X48885250Y-105976077D01*
X48819360Y-105999322D01*
X48812723Y-105999500D01*
X39901988Y-105999500D01*
X39834949Y-105979815D01*
X39789194Y-105927011D01*
X39779250Y-105857853D01*
X39780371Y-105851309D01*
X39794784Y-105778846D01*
X39794785Y-105778844D01*
X39794785Y-105621155D01*
X39794784Y-105621153D01*
X39792931Y-105611839D01*
X39764022Y-105466503D01*
X39764020Y-105466498D01*
X39703682Y-105320827D01*
X39703675Y-105320814D01*
X39616074Y-105189711D01*
X39616071Y-105189707D01*
X39504577Y-105078213D01*
X39504573Y-105078210D01*
X39373470Y-104990609D01*
X39373457Y-104990602D01*
X39227786Y-104930264D01*
X39227774Y-104930261D01*
X39073130Y-104899500D01*
X39073127Y-104899500D01*
X38915443Y-104899500D01*
X38915440Y-104899500D01*
X38760795Y-104930261D01*
X38760783Y-104930264D01*
X38615112Y-104990602D01*
X38615099Y-104990609D01*
X38483996Y-105078210D01*
X38483992Y-105078213D01*
X38372498Y-105189707D01*
X38372495Y-105189711D01*
X38284894Y-105320814D01*
X38284887Y-105320827D01*
X38224549Y-105466498D01*
X38224546Y-105466510D01*
X38193785Y-105621153D01*
X38193785Y-105778846D01*
X38208199Y-105851309D01*
X38201972Y-105920900D01*
X38159109Y-105976078D01*
X38093219Y-105999322D01*
X38086582Y-105999500D01*
X35132703Y-105999500D01*
X35065664Y-105979815D01*
X35019909Y-105927011D01*
X35009965Y-105857853D01*
X35011086Y-105851309D01*
X35025499Y-105778846D01*
X35025500Y-105778844D01*
X35025500Y-105621155D01*
X35025499Y-105621153D01*
X35023646Y-105611839D01*
X34994737Y-105466503D01*
X34994735Y-105466498D01*
X34934397Y-105320827D01*
X34934390Y-105320814D01*
X34846789Y-105189711D01*
X34846786Y-105189707D01*
X34735292Y-105078213D01*
X34735288Y-105078210D01*
X34604185Y-104990609D01*
X34604172Y-104990602D01*
X34458501Y-104930264D01*
X34458489Y-104930261D01*
X34303845Y-104899500D01*
X34303842Y-104899500D01*
X34146158Y-104899500D01*
X34146155Y-104899500D01*
X33991510Y-104930261D01*
X33991498Y-104930264D01*
X33845827Y-104990602D01*
X33845814Y-104990609D01*
X33714711Y-105078210D01*
X33714707Y-105078213D01*
X33603213Y-105189707D01*
X33603210Y-105189711D01*
X33515609Y-105320814D01*
X33515602Y-105320827D01*
X33455264Y-105466498D01*
X33455261Y-105466510D01*
X33424500Y-105621153D01*
X33424500Y-105778846D01*
X33438914Y-105851309D01*
X33432687Y-105920900D01*
X33389824Y-105976078D01*
X33323934Y-105999322D01*
X33317297Y-105999500D01*
X32711555Y-105999500D01*
X32644516Y-105979815D01*
X32598761Y-105927011D01*
X32588817Y-105857853D01*
X32593840Y-105839588D01*
X32592969Y-105839324D01*
X32594731Y-105833509D01*
X32594737Y-105833497D01*
X32625500Y-105678842D01*
X32625500Y-105521158D01*
X32625500Y-105521155D01*
X32625499Y-105521153D01*
X32605088Y-105418541D01*
X32594737Y-105366503D01*
X32575812Y-105320814D01*
X32534397Y-105220827D01*
X32534390Y-105220814D01*
X32446789Y-105089711D01*
X32446786Y-105089707D01*
X32335292Y-104978213D01*
X32335288Y-104978210D01*
X32204185Y-104890609D01*
X32204172Y-104890602D01*
X32058501Y-104830264D01*
X32058489Y-104830261D01*
X31903845Y-104799500D01*
X31903842Y-104799500D01*
X31746158Y-104799500D01*
X31746155Y-104799500D01*
X31591510Y-104830261D01*
X31591498Y-104830264D01*
X31445827Y-104890602D01*
X31445814Y-104890609D01*
X31314711Y-104978210D01*
X31201335Y-105091586D01*
X31140012Y-105125070D01*
X31070320Y-105120086D01*
X31014387Y-105078214D01*
X30994569Y-105033769D01*
X30993820Y-105033997D01*
X30992049Y-105028160D01*
X30916635Y-104846092D01*
X30916628Y-104846079D01*
X30807139Y-104682218D01*
X30807136Y-104682214D01*
X30667785Y-104542863D01*
X30667781Y-104542860D01*
X30630067Y-104517660D01*
X40412439Y-104517660D01*
X40412439Y-104675353D01*
X40443200Y-104829996D01*
X40443203Y-104830008D01*
X40503541Y-104975679D01*
X40503548Y-104975692D01*
X40591149Y-105106795D01*
X40591152Y-105106799D01*
X40702646Y-105218293D01*
X40702650Y-105218296D01*
X40833753Y-105305897D01*
X40833766Y-105305904D01*
X40979437Y-105366242D01*
X40979442Y-105366244D01*
X41134092Y-105397006D01*
X41134095Y-105397007D01*
X41134097Y-105397007D01*
X41291783Y-105397007D01*
X41291784Y-105397006D01*
X41446436Y-105366244D01*
X41592118Y-105305901D01*
X41723228Y-105218296D01*
X41834728Y-105106796D01*
X41922333Y-104975686D01*
X41982676Y-104830004D01*
X42013439Y-104675349D01*
X42013439Y-104517665D01*
X42013439Y-104517662D01*
X42013438Y-104517660D01*
X41995807Y-104429023D01*
X41982676Y-104363010D01*
X41980579Y-104357947D01*
X41922336Y-104217334D01*
X41922329Y-104217321D01*
X41834728Y-104086218D01*
X41834725Y-104086214D01*
X41723231Y-103974720D01*
X41723227Y-103974717D01*
X41592124Y-103887116D01*
X41592111Y-103887109D01*
X41446440Y-103826771D01*
X41446428Y-103826768D01*
X41291784Y-103796007D01*
X41291781Y-103796007D01*
X41134097Y-103796007D01*
X41134094Y-103796007D01*
X40979449Y-103826768D01*
X40979437Y-103826771D01*
X40833766Y-103887109D01*
X40833753Y-103887116D01*
X40702650Y-103974717D01*
X40702646Y-103974720D01*
X40591152Y-104086214D01*
X40591149Y-104086218D01*
X40503548Y-104217321D01*
X40503541Y-104217334D01*
X40443203Y-104363005D01*
X40443200Y-104363017D01*
X40412439Y-104517660D01*
X30630067Y-104517660D01*
X30503920Y-104433371D01*
X30503907Y-104433364D01*
X30321839Y-104357950D01*
X30321829Y-104357947D01*
X30128543Y-104319500D01*
X30128541Y-104319500D01*
X29581333Y-104319500D01*
X29514294Y-104299815D01*
X29468539Y-104247011D01*
X29458595Y-104177853D01*
X29473947Y-104133499D01*
X29486278Y-104112140D01*
X29486277Y-104112140D01*
X29486281Y-104112135D01*
X29525500Y-103965766D01*
X29525500Y-103814234D01*
X29486281Y-103667865D01*
X29410515Y-103536635D01*
X29303365Y-103429485D01*
X29219661Y-103381158D01*
X29219652Y-103381153D01*
X30879500Y-103381153D01*
X30879500Y-103538846D01*
X30910261Y-103693489D01*
X30910264Y-103693501D01*
X30970602Y-103839172D01*
X30970609Y-103839185D01*
X31058210Y-103970288D01*
X31058213Y-103970292D01*
X31169707Y-104081786D01*
X31169711Y-104081789D01*
X31300814Y-104169390D01*
X31300827Y-104169397D01*
X31416559Y-104217334D01*
X31446503Y-104229737D01*
X31601153Y-104260499D01*
X31601156Y-104260500D01*
X31601158Y-104260500D01*
X31758844Y-104260500D01*
X31758845Y-104260499D01*
X31913497Y-104229737D01*
X32059179Y-104169394D01*
X32190289Y-104081789D01*
X32301789Y-103970289D01*
X32389394Y-103839179D01*
X32399727Y-103814234D01*
X32449735Y-103693501D01*
X32449737Y-103693497D01*
X32480500Y-103538842D01*
X32480500Y-103381158D01*
X32480500Y-103381155D01*
X32480499Y-103381153D01*
X32463519Y-103295788D01*
X32449737Y-103226503D01*
X32416432Y-103146096D01*
X32389397Y-103080827D01*
X32389390Y-103080814D01*
X32301789Y-102949711D01*
X32301786Y-102949707D01*
X32190292Y-102838213D01*
X32190288Y-102838210D01*
X32059185Y-102750609D01*
X32059172Y-102750602D01*
X31913501Y-102690264D01*
X31913489Y-102690261D01*
X31758845Y-102659500D01*
X31758842Y-102659500D01*
X31601158Y-102659500D01*
X31601155Y-102659500D01*
X31446510Y-102690261D01*
X31446498Y-102690264D01*
X31300827Y-102750602D01*
X31300814Y-102750609D01*
X31169711Y-102838210D01*
X31169707Y-102838213D01*
X31058213Y-102949707D01*
X31058210Y-102949711D01*
X30970609Y-103080814D01*
X30970602Y-103080827D01*
X30910264Y-103226498D01*
X30910261Y-103226510D01*
X30879500Y-103381153D01*
X29219652Y-103381153D01*
X29172136Y-103353719D01*
X29098950Y-103334109D01*
X29025766Y-103314500D01*
X28874234Y-103314500D01*
X28727863Y-103353719D01*
X28596635Y-103429485D01*
X28596632Y-103429487D01*
X28489487Y-103536632D01*
X28489485Y-103536635D01*
X28413719Y-103667863D01*
X28379384Y-103796007D01*
X28374500Y-103814234D01*
X28374500Y-103965766D01*
X28376899Y-103974718D01*
X28413719Y-104112136D01*
X28446775Y-104169390D01*
X28489485Y-104243365D01*
X28489488Y-104243368D01*
X28494188Y-104249493D01*
X28519383Y-104314662D01*
X28505346Y-104383107D01*
X28460510Y-104429023D01*
X28461151Y-104429983D01*
X28456612Y-104433015D01*
X28456533Y-104433097D01*
X28456296Y-104433226D01*
X28292218Y-104542860D01*
X28292214Y-104542863D01*
X28152863Y-104682214D01*
X28152860Y-104682218D01*
X28043371Y-104846079D01*
X28043364Y-104846092D01*
X27967950Y-105028160D01*
X27967947Y-105028170D01*
X27929500Y-105221456D01*
X27929500Y-105221459D01*
X27929500Y-105418541D01*
X27929500Y-105418543D01*
X27929499Y-105418543D01*
X27967947Y-105611829D01*
X27967950Y-105611839D01*
X28043364Y-105793907D01*
X28043371Y-105793919D01*
X28051850Y-105806609D01*
X28072728Y-105873286D01*
X28054244Y-105940666D01*
X28002265Y-105987357D01*
X27948748Y-105999500D01*
X26581252Y-105999500D01*
X26514213Y-105979815D01*
X26468458Y-105927011D01*
X26458514Y-105857853D01*
X26478150Y-105806609D01*
X26481890Y-105801010D01*
X26486632Y-105793914D01*
X26562051Y-105611835D01*
X26580089Y-105521153D01*
X26600500Y-105418543D01*
X26600500Y-105221456D01*
X26562052Y-105028170D01*
X26562051Y-105028169D01*
X26562051Y-105028165D01*
X26546492Y-104990602D01*
X26486635Y-104846092D01*
X26486628Y-104846079D01*
X26377139Y-104682218D01*
X26377136Y-104682214D01*
X26237785Y-104542863D01*
X26237781Y-104542860D01*
X26073920Y-104433371D01*
X26073907Y-104433364D01*
X25891839Y-104357950D01*
X25891829Y-104357947D01*
X25698543Y-104319500D01*
X25698541Y-104319500D01*
X25624000Y-104319500D01*
X25556961Y-104299815D01*
X25511206Y-104247011D01*
X25500000Y-104195500D01*
X25500000Y-102096153D01*
X37649500Y-102096153D01*
X37649500Y-102253846D01*
X37680261Y-102408489D01*
X37680264Y-102408501D01*
X37740602Y-102554172D01*
X37740609Y-102554185D01*
X37828210Y-102685288D01*
X37828213Y-102685292D01*
X37939707Y-102796786D01*
X37939711Y-102796789D01*
X38070814Y-102884390D01*
X38070827Y-102884397D01*
X38170060Y-102925500D01*
X38216503Y-102944737D01*
X38371153Y-102975499D01*
X38371156Y-102975500D01*
X38371158Y-102975500D01*
X38528844Y-102975500D01*
X38528845Y-102975499D01*
X38683497Y-102944737D01*
X38829179Y-102884394D01*
X38960289Y-102796789D01*
X39071789Y-102685289D01*
X39159394Y-102554179D01*
X39219737Y-102408497D01*
X39250500Y-102253842D01*
X39250500Y-102096158D01*
X39250500Y-102096155D01*
X39250499Y-102096153D01*
X39228090Y-101983497D01*
X39219737Y-101941503D01*
X39208305Y-101913904D01*
X39159397Y-101795827D01*
X39159390Y-101795814D01*
X39071789Y-101664711D01*
X39071786Y-101664707D01*
X38960292Y-101553213D01*
X38960288Y-101553210D01*
X38829185Y-101465609D01*
X38829172Y-101465602D01*
X38683501Y-101405264D01*
X38683489Y-101405261D01*
X38528845Y-101374500D01*
X38528842Y-101374500D01*
X38371158Y-101374500D01*
X38371155Y-101374500D01*
X38216510Y-101405261D01*
X38216498Y-101405264D01*
X38070827Y-101465602D01*
X38070814Y-101465609D01*
X37939711Y-101553210D01*
X37939707Y-101553213D01*
X37828213Y-101664707D01*
X37828210Y-101664711D01*
X37740609Y-101795814D01*
X37740602Y-101795827D01*
X37680264Y-101941498D01*
X37680261Y-101941510D01*
X37649500Y-102096153D01*
X25500000Y-102096153D01*
X25500000Y-99624000D01*
X25519685Y-99556961D01*
X25572489Y-99511206D01*
X25624000Y-99500000D01*
X32892397Y-99500000D01*
X32959436Y-99519685D01*
G37*
%TD.AperFunction*%
%TD*%
%TA.AperFunction,Conductor*%
%TO.N,/Vbat*%
G36*
X28015787Y-96020185D02*
G01*
X28061542Y-96072989D01*
X28071486Y-96142147D01*
X28051850Y-96193391D01*
X28043371Y-96206080D01*
X28043364Y-96206092D01*
X27967950Y-96388160D01*
X27967947Y-96388170D01*
X27929500Y-96581456D01*
X27929500Y-96581459D01*
X27929500Y-96778541D01*
X27929500Y-96778543D01*
X27929499Y-96778543D01*
X27967947Y-96971829D01*
X27967950Y-96971839D01*
X28043364Y-97153907D01*
X28043371Y-97153920D01*
X28152860Y-97317781D01*
X28152863Y-97317785D01*
X28292214Y-97457136D01*
X28292218Y-97457139D01*
X28461151Y-97570017D01*
X28460180Y-97571470D01*
X28504109Y-97614619D01*
X28519571Y-97682757D01*
X28495741Y-97748437D01*
X28494190Y-97750502D01*
X28489489Y-97756627D01*
X28413719Y-97887863D01*
X28374500Y-98034234D01*
X28374500Y-98185765D01*
X28413719Y-98332136D01*
X28450540Y-98395911D01*
X28489485Y-98463365D01*
X28596635Y-98570515D01*
X28727865Y-98646281D01*
X28874234Y-98685500D01*
X28874236Y-98685500D01*
X29025764Y-98685500D01*
X29025766Y-98685500D01*
X29172135Y-98646281D01*
X29303365Y-98570515D01*
X29410515Y-98463365D01*
X29486281Y-98332135D01*
X29525500Y-98185766D01*
X29525500Y-98034234D01*
X29486281Y-97887865D01*
X29481891Y-97880261D01*
X29473947Y-97866501D01*
X29457473Y-97798602D01*
X29480325Y-97732574D01*
X29535245Y-97689383D01*
X29581333Y-97680500D01*
X30128543Y-97680500D01*
X30284462Y-97649485D01*
X30321835Y-97642051D01*
X30503914Y-97566632D01*
X30667782Y-97457139D01*
X30807139Y-97317782D01*
X30908837Y-97165579D01*
X30962449Y-97120775D01*
X31031774Y-97112068D01*
X31094801Y-97142222D01*
X31115040Y-97165579D01*
X31128208Y-97185286D01*
X31128213Y-97185292D01*
X31239707Y-97296786D01*
X31239711Y-97296789D01*
X31370814Y-97384390D01*
X31370827Y-97384397D01*
X31516498Y-97444735D01*
X31516503Y-97444737D01*
X31671153Y-97475499D01*
X31671156Y-97475500D01*
X31671158Y-97475500D01*
X31828844Y-97475500D01*
X31828845Y-97475499D01*
X31983497Y-97444737D01*
X32129179Y-97384394D01*
X32260289Y-97296789D01*
X32371789Y-97185289D01*
X32459394Y-97054179D01*
X32519737Y-96908497D01*
X32550500Y-96753842D01*
X32550500Y-96596158D01*
X32550500Y-96596155D01*
X32550499Y-96596153D01*
X32519738Y-96441510D01*
X32519737Y-96441503D01*
X32519735Y-96441498D01*
X32459397Y-96295827D01*
X32459390Y-96295814D01*
X32390953Y-96193391D01*
X32370075Y-96126713D01*
X32388560Y-96059333D01*
X32440538Y-96012643D01*
X32494055Y-96000500D01*
X44292297Y-96000500D01*
X44359336Y-96020185D01*
X44405091Y-96072989D01*
X44415035Y-96142147D01*
X44413914Y-96148691D01*
X44399500Y-96221153D01*
X44399500Y-96378846D01*
X44430261Y-96533489D01*
X44430264Y-96533501D01*
X44490602Y-96679172D01*
X44490609Y-96679185D01*
X44578210Y-96810288D01*
X44578213Y-96810292D01*
X44689707Y-96921786D01*
X44689711Y-96921789D01*
X44820814Y-97009390D01*
X44820827Y-97009397D01*
X44966498Y-97069735D01*
X44966503Y-97069737D01*
X45121153Y-97100499D01*
X45121156Y-97100500D01*
X45121158Y-97100500D01*
X45278844Y-97100500D01*
X45278845Y-97100499D01*
X45433497Y-97069737D01*
X45579179Y-97009394D01*
X45710289Y-96921789D01*
X45821789Y-96810289D01*
X45909394Y-96679179D01*
X45969737Y-96533497D01*
X46000500Y-96378842D01*
X46000500Y-96221158D01*
X46000500Y-96221155D01*
X46000499Y-96221153D01*
X45986086Y-96148691D01*
X45992313Y-96079100D01*
X46035176Y-96023922D01*
X46101066Y-96000678D01*
X46107703Y-96000500D01*
X54126000Y-96000500D01*
X54193039Y-96020185D01*
X54238794Y-96072989D01*
X54250000Y-96124500D01*
X54250000Y-98308230D01*
X54230315Y-98375269D01*
X54177511Y-98421024D01*
X54108353Y-98430968D01*
X54044797Y-98401943D01*
X54038319Y-98395911D01*
X54015789Y-98373381D01*
X54015787Y-98373379D01*
X53866096Y-98264622D01*
X53701235Y-98180620D01*
X53701232Y-98180619D01*
X53525265Y-98123445D01*
X53432427Y-98108741D01*
X53342514Y-98094500D01*
X53157486Y-98094500D01*
X53096569Y-98104148D01*
X52974734Y-98123445D01*
X52798767Y-98180619D01*
X52798764Y-98180620D01*
X52633903Y-98264622D01*
X52573883Y-98308230D01*
X52484213Y-98373379D01*
X52484211Y-98373381D01*
X52484210Y-98373381D01*
X52353381Y-98504210D01*
X52353381Y-98504211D01*
X52353379Y-98504213D01*
X52306672Y-98568499D01*
X52244622Y-98653903D01*
X52160620Y-98818764D01*
X52160619Y-98818767D01*
X52103445Y-98994734D01*
X52074500Y-99177486D01*
X52074500Y-99362513D01*
X52103445Y-99545265D01*
X52160619Y-99721232D01*
X52160620Y-99721235D01*
X52244622Y-99886096D01*
X52353379Y-100035787D01*
X52484213Y-100166621D01*
X52633904Y-100275378D01*
X52714763Y-100316577D01*
X52798764Y-100359379D01*
X52798767Y-100359380D01*
X52886750Y-100387967D01*
X52974736Y-100416555D01*
X53157486Y-100445500D01*
X53157487Y-100445500D01*
X53342513Y-100445500D01*
X53342514Y-100445500D01*
X53525264Y-100416555D01*
X53701235Y-100359379D01*
X53866096Y-100275378D01*
X54015787Y-100166621D01*
X54038319Y-100144089D01*
X54099642Y-100110604D01*
X54169334Y-100115588D01*
X54225267Y-100157460D01*
X54249684Y-100222924D01*
X54250000Y-100231770D01*
X54250000Y-101568230D01*
X54230315Y-101635269D01*
X54177511Y-101681024D01*
X54108353Y-101690968D01*
X54044797Y-101661943D01*
X54038319Y-101655911D01*
X54015789Y-101633381D01*
X54015787Y-101633379D01*
X53866096Y-101524622D01*
X53847165Y-101514976D01*
X53701235Y-101440620D01*
X53701232Y-101440619D01*
X53525265Y-101383445D01*
X53433889Y-101368972D01*
X53342514Y-101354500D01*
X53157486Y-101354500D01*
X53096569Y-101364148D01*
X52974734Y-101383445D01*
X52798767Y-101440619D01*
X52798764Y-101440620D01*
X52633900Y-101524624D01*
X52518521Y-101608451D01*
X52452714Y-101631931D01*
X52384661Y-101616105D01*
X52364434Y-101601847D01*
X52364399Y-101601817D01*
X52355878Y-101594433D01*
X52355875Y-101594431D01*
X52355873Y-101594430D01*
X52225007Y-101534664D01*
X52225002Y-101534662D01*
X52225001Y-101534662D01*
X52157962Y-101514977D01*
X52157964Y-101514977D01*
X52157959Y-101514976D01*
X52110486Y-101508150D01*
X52015542Y-101494500D01*
X52015540Y-101494500D01*
X51629500Y-101494500D01*
X51562461Y-101474815D01*
X51516706Y-101422011D01*
X51505500Y-101370500D01*
X51505500Y-99624010D01*
X51505500Y-99624000D01*
X51493947Y-99516544D01*
X51482741Y-99465033D01*
X51482637Y-99464722D01*
X51448616Y-99362502D01*
X51448613Y-99362496D01*
X51407655Y-99298765D01*
X51370825Y-99241457D01*
X51369312Y-99239711D01*
X51325076Y-99188659D01*
X51325072Y-99188656D01*
X51325070Y-99188653D01*
X51216336Y-99094433D01*
X51216333Y-99094431D01*
X51216331Y-99094430D01*
X51085465Y-99034664D01*
X51085460Y-99034662D01*
X51085459Y-99034662D01*
X51018420Y-99014977D01*
X51018422Y-99014977D01*
X51018417Y-99014976D01*
X50940134Y-99003721D01*
X50876000Y-98994500D01*
X50845741Y-98994500D01*
X50845724Y-98994500D01*
X50842136Y-98994513D01*
X50840232Y-98994527D01*
X50836738Y-98994565D01*
X50694631Y-99017075D01*
X50694619Y-99017077D01*
X50635056Y-99035496D01*
X50635047Y-99035499D01*
X50627880Y-99037716D01*
X50627873Y-99037718D01*
X50612506Y-99045003D01*
X50609988Y-99046065D01*
X50577859Y-99049723D01*
X50545921Y-99054782D01*
X50543353Y-99053653D01*
X50540567Y-99053971D01*
X50511565Y-99039680D01*
X50481958Y-99026667D01*
X50479249Y-99023758D01*
X50477892Y-99023089D01*
X50476547Y-99020855D01*
X50461499Y-99004692D01*
X50446621Y-98984213D01*
X50315787Y-98853379D01*
X50166096Y-98744622D01*
X50135126Y-98728842D01*
X50001235Y-98660620D01*
X50001232Y-98660619D01*
X49825265Y-98603445D01*
X49733889Y-98588972D01*
X49642514Y-98574500D01*
X49457486Y-98574500D01*
X49396569Y-98584148D01*
X49274734Y-98603445D01*
X49098767Y-98660619D01*
X49098764Y-98660620D01*
X48933903Y-98744622D01*
X48856630Y-98800765D01*
X48784213Y-98853379D01*
X48784211Y-98853381D01*
X48784210Y-98853381D01*
X48653381Y-98984210D01*
X48653381Y-98984211D01*
X48653379Y-98984213D01*
X48614507Y-99037716D01*
X48544620Y-99133906D01*
X48510611Y-99200652D01*
X48462636Y-99251447D01*
X48394815Y-99268242D01*
X48352675Y-99258917D01*
X48283501Y-99230264D01*
X48283489Y-99230261D01*
X48128845Y-99199500D01*
X48128842Y-99199500D01*
X47971158Y-99199500D01*
X47971155Y-99199500D01*
X47816511Y-99230260D01*
X47816503Y-99230263D01*
X47806159Y-99234547D01*
X47736689Y-99242010D01*
X47674212Y-99210730D01*
X47665001Y-99201184D01*
X47654145Y-99188655D01*
X47654143Y-99188653D01*
X47545409Y-99094433D01*
X47545406Y-99094431D01*
X47545404Y-99094430D01*
X47414538Y-99034664D01*
X47414533Y-99034662D01*
X47414532Y-99034662D01*
X47347493Y-99014977D01*
X47347495Y-99014977D01*
X47347490Y-99014976D01*
X47269207Y-99003721D01*
X47205073Y-98994500D01*
X39767549Y-98994500D01*
X39766025Y-98994520D01*
X39753995Y-98994681D01*
X39752007Y-98994735D01*
X39684466Y-98976847D01*
X39637317Y-98925284D01*
X39625531Y-98856415D01*
X39627079Y-98846587D01*
X39650500Y-98728844D01*
X39650500Y-98571155D01*
X39650499Y-98571153D01*
X39650372Y-98570514D01*
X39619737Y-98416503D01*
X39611208Y-98395911D01*
X39559397Y-98270827D01*
X39559390Y-98270814D01*
X39471789Y-98139711D01*
X39471786Y-98139707D01*
X39360292Y-98028213D01*
X39360288Y-98028210D01*
X39229185Y-97940609D01*
X39229172Y-97940602D01*
X39083501Y-97880264D01*
X39083489Y-97880261D01*
X38928845Y-97849500D01*
X38928842Y-97849500D01*
X38771158Y-97849500D01*
X38771155Y-97849500D01*
X38616510Y-97880261D01*
X38616498Y-97880264D01*
X38470827Y-97940602D01*
X38470814Y-97940609D01*
X38339711Y-98028210D01*
X38339707Y-98028213D01*
X38287681Y-98080240D01*
X38226358Y-98113725D01*
X38156666Y-98108741D01*
X38112319Y-98080240D01*
X38060292Y-98028213D01*
X38060288Y-98028210D01*
X37929185Y-97940609D01*
X37929172Y-97940602D01*
X37783501Y-97880264D01*
X37783489Y-97880261D01*
X37628845Y-97849500D01*
X37628842Y-97849500D01*
X37471158Y-97849500D01*
X37471155Y-97849500D01*
X37316510Y-97880261D01*
X37316498Y-97880264D01*
X37170827Y-97940602D01*
X37170814Y-97940609D01*
X37039711Y-98028210D01*
X37039707Y-98028213D01*
X36928213Y-98139707D01*
X36928210Y-98139711D01*
X36840609Y-98270814D01*
X36840602Y-98270827D01*
X36780264Y-98416498D01*
X36780261Y-98416510D01*
X36749500Y-98571153D01*
X36749500Y-98728846D01*
X36773157Y-98847778D01*
X36766930Y-98917370D01*
X36724067Y-98972547D01*
X36658177Y-98995791D01*
X36633906Y-98994709D01*
X36632454Y-98994500D01*
X36632451Y-98994500D01*
X35615638Y-98994500D01*
X35615625Y-98994500D01*
X35615618Y-98994501D01*
X35601680Y-98995373D01*
X35582928Y-98991118D01*
X35563712Y-98991875D01*
X35549556Y-98983545D01*
X35533542Y-98979912D01*
X35520066Y-98966194D01*
X35503493Y-98956442D01*
X35490104Y-98935691D01*
X35484580Y-98930068D01*
X35483258Y-98927525D01*
X35481164Y-98923381D01*
X35459394Y-98870821D01*
X35439803Y-98841501D01*
X35436407Y-98834778D01*
X35431387Y-98807526D01*
X35423107Y-98781082D01*
X35424221Y-98768625D01*
X35423750Y-98766064D01*
X35424646Y-98763876D01*
X35425470Y-98754676D01*
X35450500Y-98628844D01*
X35450500Y-98471155D01*
X35450499Y-98471153D01*
X35431050Y-98373379D01*
X35419737Y-98316503D01*
X35400812Y-98270814D01*
X35359397Y-98170827D01*
X35359390Y-98170814D01*
X35271789Y-98039711D01*
X35271786Y-98039707D01*
X35160292Y-97928213D01*
X35160288Y-97928210D01*
X35029185Y-97840609D01*
X35029172Y-97840602D01*
X34883501Y-97780264D01*
X34883489Y-97780261D01*
X34728845Y-97749500D01*
X34728842Y-97749500D01*
X34571158Y-97749500D01*
X34571155Y-97749500D01*
X34416510Y-97780261D01*
X34416498Y-97780264D01*
X34270827Y-97840602D01*
X34270814Y-97840609D01*
X34139711Y-97928210D01*
X34139707Y-97928213D01*
X34028213Y-98039707D01*
X34028210Y-98039711D01*
X33940609Y-98170814D01*
X33940602Y-98170827D01*
X33880264Y-98316498D01*
X33880261Y-98316510D01*
X33849500Y-98471153D01*
X33849500Y-98628846D01*
X33880261Y-98783489D01*
X33880264Y-98783501D01*
X33898716Y-98828048D01*
X33906185Y-98897517D01*
X33874909Y-98959996D01*
X33814820Y-98995648D01*
X33784155Y-98999500D01*
X33721155Y-98999500D01*
X33566510Y-99030261D01*
X33566498Y-99030264D01*
X33420828Y-99090602D01*
X33420816Y-99090609D01*
X33390752Y-99110696D01*
X33324074Y-99131571D01*
X33256694Y-99113084D01*
X33240662Y-99101303D01*
X33232736Y-99094435D01*
X33232728Y-99094430D01*
X33101862Y-99034664D01*
X33101857Y-99034662D01*
X33101856Y-99034662D01*
X33034817Y-99014977D01*
X33034819Y-99014977D01*
X33034814Y-99014976D01*
X32956531Y-99003721D01*
X32892397Y-98994500D01*
X32892395Y-98994500D01*
X32617916Y-98994500D01*
X32550877Y-98974815D01*
X32505122Y-98922011D01*
X32495178Y-98852853D01*
X32503355Y-98823048D01*
X32519735Y-98783501D01*
X32519737Y-98783497D01*
X32550500Y-98628842D01*
X32550500Y-98471158D01*
X32550500Y-98471155D01*
X32550499Y-98471153D01*
X32531050Y-98373379D01*
X32519737Y-98316503D01*
X32500812Y-98270814D01*
X32459397Y-98170827D01*
X32459390Y-98170814D01*
X32371789Y-98039711D01*
X32371786Y-98039707D01*
X32260292Y-97928213D01*
X32260288Y-97928210D01*
X32129185Y-97840609D01*
X32129172Y-97840602D01*
X31983501Y-97780264D01*
X31983489Y-97780261D01*
X31828845Y-97749500D01*
X31828842Y-97749500D01*
X31671158Y-97749500D01*
X31671155Y-97749500D01*
X31516510Y-97780261D01*
X31516498Y-97780264D01*
X31370827Y-97840602D01*
X31370814Y-97840609D01*
X31239711Y-97928210D01*
X31239707Y-97928213D01*
X31128213Y-98039707D01*
X31128210Y-98039711D01*
X31040609Y-98170814D01*
X31040602Y-98170827D01*
X30980264Y-98316498D01*
X30980261Y-98316510D01*
X30949500Y-98471153D01*
X30949500Y-98628846D01*
X30980261Y-98783489D01*
X30980264Y-98783501D01*
X30996645Y-98823048D01*
X31004114Y-98892517D01*
X30972838Y-98954996D01*
X30912749Y-98990648D01*
X30882084Y-98994500D01*
X25624000Y-98994500D01*
X25556961Y-98974815D01*
X25511206Y-98922011D01*
X25500000Y-98870500D01*
X25500000Y-97804500D01*
X25519685Y-97737461D01*
X25572489Y-97691706D01*
X25624000Y-97680500D01*
X25698543Y-97680500D01*
X25854462Y-97649485D01*
X25891835Y-97642051D01*
X26073914Y-97566632D01*
X26237782Y-97457139D01*
X26377139Y-97317782D01*
X26486632Y-97153914D01*
X26562051Y-96971835D01*
X26574651Y-96908489D01*
X26600500Y-96778543D01*
X26600500Y-96581456D01*
X26562052Y-96388170D01*
X26562051Y-96388169D01*
X26562051Y-96388165D01*
X26523801Y-96295821D01*
X26486635Y-96206092D01*
X26486633Y-96206088D01*
X26486632Y-96206086D01*
X26486628Y-96206080D01*
X26478150Y-96193391D01*
X26457272Y-96126714D01*
X26475756Y-96059334D01*
X26527735Y-96012643D01*
X26581252Y-96000500D01*
X27948748Y-96000500D01*
X28015787Y-96020185D01*
G37*
%TD.AperFunction*%
%TD*%
M02*
