M48
; DRILL file {KiCad 9.0.4} date 2025-09-14T00:07:04+0200
; FORMAT={-:-/ absolute / metric / decimal}
; #@! TF.CreationDate,2025-09-14T00:07:04+02:00
; #@! TF.GenerationSoftware,Kicad,Pcbnew,9.0.4
; #@! TF.FileFunction,Plated,1,4,PTH
FMAT,2
METRIC
; #@! TA.AperFunction,Plated,PTH,ViaDrill
T1C0.300
; #@! TA.AperFunction,Plated,PTH,ComponentDrill
T2C0.600
; #@! TA.AperFunction,Plated,PTH,ComponentDrill
T3C0.800
%
G90
G05
T1
X31.68Y-103.46
X31.75Y-96.675
X31.75Y-98.55
X31.825Y-105.6
X33.8Y-99.8
X34.225Y-105.7
X34.65Y-98.55
X34.75Y-99.25
X34.75Y-99.95
X35.3Y-100.7
X35.85Y-101.25
X36.25Y-97.75
X36.35Y-96.95
X37.55Y-98.65
X37.55Y-99.75
X38.45Y-102.175
X38.85Y-98.65
X38.85Y-99.75
X38.994Y-105.7
X40.699Y-100.695
X40.699Y-101.75
X41.213Y-104.597
X45.2Y-96.3
X48.05Y-100.0
X49.625Y-96.775
X49.707Y-105.63
X49.812Y-104.837
T3
X49.55Y-99.75
X49.55Y-101.75
X53.25Y-97.27
X53.25Y-99.27
X53.25Y-102.53
X53.25Y-104.53
T2
G00X25.6Y-96.68
M15
G01X25.0Y-96.68
M16
G05
G00X25.6Y-105.32
M15
G01X25.0Y-105.32
M16
G05
G00X30.03Y-96.68
M15
G01X28.93Y-96.68
M16
G05
G00X30.03Y-105.32
M15
G01X28.93Y-105.32
M16
G05
M30
