%TF.GenerationSoftware,KiCad,Pcbnew,9.0.4*%
%TF.CreationDate,2025-09-14T00:07:07+02:00*%
%TF.ProjectId,charging-module-slim,63686172-6769-46e6-972d-6d6f64756c65,rev?*%
%TF.SameCoordinates,Original*%
%TF.FileFunction,Legend,Top*%
%TF.FilePolarity,Positive*%
%FSLAX46Y46*%
G04 Gerber Fmt 4.6, Leading zero omitted, Abs format (unit mm)*
G04 Created by KiCad (PCBNEW 9.0.4) date 2025-09-14 00:07:07*
%MOMM*%
%LPD*%
G01*
G04 APERTURE LIST*
%ADD10C,0.120000*%
%ADD11C,0.250000*%
G04 APERTURE END LIST*
D10*
%TO.C,R2*%
X32265000Y-104022936D02*
X32265000Y-104477064D01*
X33735000Y-104022936D02*
X33735000Y-104477064D01*
%TO.C,C3*%
X47523752Y-96015000D02*
X47001248Y-96015000D01*
X47523752Y-97485000D02*
X47001248Y-97485000D01*
%TO.C,C2*%
X50011252Y-104315000D02*
X49488748Y-104315000D01*
X50011252Y-105785000D02*
X49488748Y-105785000D01*
%TO.C,R9*%
X42872936Y-96015000D02*
X43327064Y-96015000D01*
X42872936Y-97485000D02*
X43327064Y-97485000D01*
%TO.C,R6*%
X41565000Y-104022936D02*
X41565000Y-104477064D01*
X43035000Y-104022936D02*
X43035000Y-104477064D01*
%TO.C,TH1*%
X48490000Y-100750000D02*
X48490000Y-98690000D01*
X48490000Y-102810000D02*
X48490000Y-101750000D01*
X49550000Y-102810000D02*
X48490000Y-102810000D01*
X50610000Y-98690000D02*
X48490000Y-98690000D01*
X50610000Y-100750000D02*
X48490000Y-100750000D01*
X50610000Y-100750000D02*
X50610000Y-98690000D01*
%TO.C,J2*%
X22450000Y-96300000D02*
X22450000Y-105700000D01*
X24350000Y-96300000D02*
X22450000Y-96300000D01*
X24350000Y-105700000D02*
X22450000Y-105700000D01*
X28250000Y-96300000D02*
X26250000Y-96300000D01*
X28250000Y-105700000D02*
X26250000Y-105700000D01*
%TO.C,R3*%
X37065000Y-104022936D02*
X37065000Y-104477064D01*
X38535000Y-104022936D02*
X38535000Y-104477064D01*
%TO.C,J1*%
X52190000Y-98270000D02*
X52190000Y-100330000D01*
X52190000Y-98270000D02*
X54310000Y-98270000D01*
X52190000Y-100330000D02*
X54310000Y-100330000D01*
X53250000Y-96210000D02*
X54310000Y-96210000D01*
X54310000Y-96210000D02*
X54310000Y-97270000D01*
X54310000Y-98270000D02*
X54310000Y-100330000D01*
%TO.C,C1*%
X32265000Y-99488748D02*
X32265000Y-100011252D01*
X33735000Y-99488748D02*
X33735000Y-100011252D01*
%TO.C,R7*%
X43815000Y-104022936D02*
X43815000Y-104477064D01*
X45285000Y-104022936D02*
X45285000Y-104477064D01*
%TO.C,R4*%
X39315000Y-104022936D02*
X39315000Y-104477064D01*
X40785000Y-104022936D02*
X40785000Y-104477064D01*
D11*
%TO.C,IC1*%
X36625000Y-101650000D02*
G75*
G02*
X36375000Y-101650000I-125000J0D01*
G01*
X36375000Y-101650000D02*
G75*
G02*
X36625000Y-101650000I125000J0D01*
G01*
D10*
%TO.C,R1*%
X34515000Y-104022936D02*
X34515000Y-104477064D01*
X35985000Y-104022936D02*
X35985000Y-104477064D01*
%TO.C,R5*%
X33977064Y-95965000D02*
X33522936Y-95965000D01*
X33977064Y-97435000D02*
X33522936Y-97435000D01*
%TO.C,D2*%
X43590000Y-99100000D02*
X43590000Y-101960000D01*
X43590000Y-101960000D02*
X45510000Y-101960000D01*
X45510000Y-101960000D02*
X45510000Y-99100000D01*
%TO.C,D3*%
X45840000Y-99100000D02*
X45840000Y-101960000D01*
X45840000Y-101960000D02*
X47760000Y-101960000D01*
X47760000Y-101960000D02*
X47760000Y-99100000D01*
%TO.C,D1*%
X41340000Y-99100000D02*
X41340000Y-101960000D01*
X41340000Y-101960000D02*
X43260000Y-101960000D01*
X43260000Y-101960000D02*
X43260000Y-99100000D01*
%TO.C,R8*%
X46065000Y-104022936D02*
X46065000Y-104477064D01*
X47535000Y-104022936D02*
X47535000Y-104477064D01*
%TO.C,J3*%
X54310000Y-103530000D02*
X54310000Y-101470000D01*
X54310000Y-103530000D02*
X52190000Y-103530000D01*
X54310000Y-101470000D02*
X52190000Y-101470000D01*
X53250000Y-105590000D02*
X52190000Y-105590000D01*
X52190000Y-105590000D02*
X52190000Y-104530000D01*
X52190000Y-103530000D02*
X52190000Y-101470000D01*
%TD*%
M02*
