%TF.GenerationSoftware,KiCad,Pcbnew,9.0.4*%
%TF.CreationDate,2025-09-14T00:07:07+02:00*%
%TF.ProjectId,charging-module-slim,63686172-6769-46e6-972d-6d6f64756c65,rev?*%
%TF.SameCoordinates,Original*%
%TF.FileFunction,Legend,Bot*%
%TF.FilePolarity,Positive*%
%FSLAX46Y46*%
G04 Gerber Fmt 4.6, Leading zero omitted, Abs format (unit mm)*
G04 Created by KiCad (PCBNEW 9.0.4) date 2025-09-14 00:07:07*
%MOMM*%
%LPD*%
G01*
G04 APERTURE LIST*
%ADD10C,0.158750*%
%ADD11C,0.160000*%
G04 APERTURE END LIST*
D10*
X43026427Y-104559271D02*
X42603094Y-105829271D01*
X42603094Y-105829271D02*
X42179760Y-104559271D01*
X41333094Y-105164033D02*
X41151666Y-105224509D01*
X41151666Y-105224509D02*
X41091189Y-105284985D01*
X41091189Y-105284985D02*
X41030713Y-105405937D01*
X41030713Y-105405937D02*
X41030713Y-105587366D01*
X41030713Y-105587366D02*
X41091189Y-105708318D01*
X41091189Y-105708318D02*
X41151666Y-105768795D01*
X41151666Y-105768795D02*
X41272618Y-105829271D01*
X41272618Y-105829271D02*
X41756428Y-105829271D01*
X41756428Y-105829271D02*
X41756428Y-104559271D01*
X41756428Y-104559271D02*
X41333094Y-104559271D01*
X41333094Y-104559271D02*
X41212142Y-104619747D01*
X41212142Y-104619747D02*
X41151666Y-104680223D01*
X41151666Y-104680223D02*
X41091189Y-104801175D01*
X41091189Y-104801175D02*
X41091189Y-104922128D01*
X41091189Y-104922128D02*
X41151666Y-105043080D01*
X41151666Y-105043080D02*
X41212142Y-105103556D01*
X41212142Y-105103556D02*
X41333094Y-105164033D01*
X41333094Y-105164033D02*
X41756428Y-105164033D01*
X40546904Y-105466414D02*
X39942142Y-105466414D01*
X40667856Y-105829271D02*
X40244523Y-104559271D01*
X40244523Y-104559271D02*
X39821189Y-105829271D01*
X39579285Y-104559271D02*
X38853571Y-104559271D01*
X39216428Y-105829271D02*
X39216428Y-104559271D01*
X36918333Y-104982604D02*
X36918333Y-105829271D01*
X37220714Y-104498795D02*
X37523095Y-105405937D01*
X37523095Y-105405937D02*
X36736904Y-105405937D01*
X36253095Y-105708318D02*
X36192618Y-105768795D01*
X36192618Y-105768795D02*
X36253095Y-105829271D01*
X36253095Y-105829271D02*
X36313571Y-105768795D01*
X36313571Y-105768795D02*
X36253095Y-105708318D01*
X36253095Y-105708318D02*
X36253095Y-105829271D01*
X35708809Y-104680223D02*
X35648333Y-104619747D01*
X35648333Y-104619747D02*
X35527380Y-104559271D01*
X35527380Y-104559271D02*
X35224999Y-104559271D01*
X35224999Y-104559271D02*
X35104047Y-104619747D01*
X35104047Y-104619747D02*
X35043571Y-104680223D01*
X35043571Y-104680223D02*
X34983094Y-104801175D01*
X34983094Y-104801175D02*
X34983094Y-104922128D01*
X34983094Y-104922128D02*
X35043571Y-105103556D01*
X35043571Y-105103556D02*
X35769285Y-105829271D01*
X35769285Y-105829271D02*
X34983094Y-105829271D01*
X34620237Y-104559271D02*
X34196904Y-105829271D01*
X34196904Y-105829271D02*
X33773570Y-104559271D01*
D11*
X42936086Y-97329822D02*
X42936086Y-96129822D01*
X42936086Y-96129822D02*
X42536086Y-96986965D01*
X42536086Y-96986965D02*
X42136086Y-96129822D01*
X42136086Y-96129822D02*
X42136086Y-97329822D01*
X40878943Y-97215537D02*
X40936086Y-97272680D01*
X40936086Y-97272680D02*
X41107514Y-97329822D01*
X41107514Y-97329822D02*
X41221800Y-97329822D01*
X41221800Y-97329822D02*
X41393229Y-97272680D01*
X41393229Y-97272680D02*
X41507514Y-97158394D01*
X41507514Y-97158394D02*
X41564657Y-97044108D01*
X41564657Y-97044108D02*
X41621800Y-96815537D01*
X41621800Y-96815537D02*
X41621800Y-96644108D01*
X41621800Y-96644108D02*
X41564657Y-96415537D01*
X41564657Y-96415537D02*
X41507514Y-96301251D01*
X41507514Y-96301251D02*
X41393229Y-96186965D01*
X41393229Y-96186965D02*
X41221800Y-96129822D01*
X41221800Y-96129822D02*
X41107514Y-96129822D01*
X41107514Y-96129822D02*
X40936086Y-96186965D01*
X40936086Y-96186965D02*
X40878943Y-96244108D01*
X40364657Y-97329822D02*
X40364657Y-96129822D01*
X40364657Y-96129822D02*
X39907514Y-96129822D01*
X39907514Y-96129822D02*
X39793229Y-96186965D01*
X39793229Y-96186965D02*
X39736086Y-96244108D01*
X39736086Y-96244108D02*
X39678943Y-96358394D01*
X39678943Y-96358394D02*
X39678943Y-96529822D01*
X39678943Y-96529822D02*
X39736086Y-96644108D01*
X39736086Y-96644108D02*
X39793229Y-96701251D01*
X39793229Y-96701251D02*
X39907514Y-96758394D01*
X39907514Y-96758394D02*
X40364657Y-96758394D01*
X39278943Y-96129822D02*
X38478943Y-96129822D01*
X38478943Y-96129822D02*
X38993229Y-97329822D01*
X38136086Y-96129822D02*
X37393229Y-96129822D01*
X37393229Y-96129822D02*
X37793229Y-96586965D01*
X37793229Y-96586965D02*
X37621800Y-96586965D01*
X37621800Y-96586965D02*
X37507515Y-96644108D01*
X37507515Y-96644108D02*
X37450372Y-96701251D01*
X37450372Y-96701251D02*
X37393229Y-96815537D01*
X37393229Y-96815537D02*
X37393229Y-97101251D01*
X37393229Y-97101251D02*
X37450372Y-97215537D01*
X37450372Y-97215537D02*
X37507515Y-97272680D01*
X37507515Y-97272680D02*
X37621800Y-97329822D01*
X37621800Y-97329822D02*
X37964657Y-97329822D01*
X37964657Y-97329822D02*
X38078943Y-97272680D01*
X38078943Y-97272680D02*
X38136086Y-97215537D01*
X36707515Y-96644108D02*
X36821800Y-96586965D01*
X36821800Y-96586965D02*
X36878943Y-96529822D01*
X36878943Y-96529822D02*
X36936086Y-96415537D01*
X36936086Y-96415537D02*
X36936086Y-96358394D01*
X36936086Y-96358394D02*
X36878943Y-96244108D01*
X36878943Y-96244108D02*
X36821800Y-96186965D01*
X36821800Y-96186965D02*
X36707515Y-96129822D01*
X36707515Y-96129822D02*
X36478943Y-96129822D01*
X36478943Y-96129822D02*
X36364658Y-96186965D01*
X36364658Y-96186965D02*
X36307515Y-96244108D01*
X36307515Y-96244108D02*
X36250372Y-96358394D01*
X36250372Y-96358394D02*
X36250372Y-96415537D01*
X36250372Y-96415537D02*
X36307515Y-96529822D01*
X36307515Y-96529822D02*
X36364658Y-96586965D01*
X36364658Y-96586965D02*
X36478943Y-96644108D01*
X36478943Y-96644108D02*
X36707515Y-96644108D01*
X36707515Y-96644108D02*
X36821800Y-96701251D01*
X36821800Y-96701251D02*
X36878943Y-96758394D01*
X36878943Y-96758394D02*
X36936086Y-96872680D01*
X36936086Y-96872680D02*
X36936086Y-97101251D01*
X36936086Y-97101251D02*
X36878943Y-97215537D01*
X36878943Y-97215537D02*
X36821800Y-97272680D01*
X36821800Y-97272680D02*
X36707515Y-97329822D01*
X36707515Y-97329822D02*
X36478943Y-97329822D01*
X36478943Y-97329822D02*
X36364658Y-97272680D01*
X36364658Y-97272680D02*
X36307515Y-97215537D01*
X36307515Y-97215537D02*
X36250372Y-97101251D01*
X36250372Y-97101251D02*
X36250372Y-96872680D01*
X36250372Y-96872680D02*
X36307515Y-96758394D01*
X36307515Y-96758394D02*
X36364658Y-96701251D01*
X36364658Y-96701251D02*
X36478943Y-96644108D01*
X35850372Y-96129822D02*
X35050372Y-96129822D01*
X35050372Y-96129822D02*
X35564658Y-97329822D01*
X33964658Y-97329822D02*
X34650372Y-97329822D01*
X34307515Y-97329822D02*
X34307515Y-96129822D01*
X34307515Y-96129822D02*
X34421801Y-96301251D01*
X34421801Y-96301251D02*
X34536086Y-96415537D01*
X34536086Y-96415537D02*
X34650372Y-96472680D01*
X47530451Y-100362889D02*
X48216165Y-100362889D01*
X47873308Y-100362889D02*
X47873308Y-99162889D01*
X47873308Y-99162889D02*
X47987594Y-99334318D01*
X47987594Y-99334318D02*
X48101879Y-99448604D01*
X48101879Y-99448604D02*
X48216165Y-99505747D01*
X46787594Y-99162889D02*
X46673308Y-99162889D01*
X46673308Y-99162889D02*
X46559022Y-99220032D01*
X46559022Y-99220032D02*
X46501880Y-99277175D01*
X46501880Y-99277175D02*
X46444737Y-99391461D01*
X46444737Y-99391461D02*
X46387594Y-99620032D01*
X46387594Y-99620032D02*
X46387594Y-99905747D01*
X46387594Y-99905747D02*
X46444737Y-100134318D01*
X46444737Y-100134318D02*
X46501880Y-100248604D01*
X46501880Y-100248604D02*
X46559022Y-100305747D01*
X46559022Y-100305747D02*
X46673308Y-100362889D01*
X46673308Y-100362889D02*
X46787594Y-100362889D01*
X46787594Y-100362889D02*
X46901880Y-100305747D01*
X46901880Y-100305747D02*
X46959022Y-100248604D01*
X46959022Y-100248604D02*
X47016165Y-100134318D01*
X47016165Y-100134318D02*
X47073308Y-99905747D01*
X47073308Y-99905747D02*
X47073308Y-99620032D01*
X47073308Y-99620032D02*
X47016165Y-99391461D01*
X47016165Y-99391461D02*
X46959022Y-99277175D01*
X46959022Y-99277175D02*
X46901880Y-99220032D01*
X46901880Y-99220032D02*
X46787594Y-99162889D01*
X45873308Y-100362889D02*
X45873308Y-99162889D01*
X45759023Y-99905747D02*
X45416165Y-100362889D01*
X45416165Y-99562889D02*
X45873308Y-100020032D01*
X48159022Y-102294822D02*
X48159022Y-101094822D01*
X48159022Y-101094822D02*
X47473308Y-102294822D01*
X47473308Y-102294822D02*
X47473308Y-101094822D01*
X47073308Y-101094822D02*
X46387594Y-101094822D01*
X46730451Y-102294822D02*
X46730451Y-101094822D01*
X45301879Y-102180537D02*
X45359022Y-102237680D01*
X45359022Y-102237680D02*
X45530450Y-102294822D01*
X45530450Y-102294822D02*
X45644736Y-102294822D01*
X45644736Y-102294822D02*
X45816165Y-102237680D01*
X45816165Y-102237680D02*
X45930450Y-102123394D01*
X45930450Y-102123394D02*
X45987593Y-102009108D01*
X45987593Y-102009108D02*
X46044736Y-101780537D01*
X46044736Y-101780537D02*
X46044736Y-101609108D01*
X46044736Y-101609108D02*
X45987593Y-101380537D01*
X45987593Y-101380537D02*
X45930450Y-101266251D01*
X45930450Y-101266251D02*
X45816165Y-101151965D01*
X45816165Y-101151965D02*
X45644736Y-101094822D01*
X45644736Y-101094822D02*
X45530450Y-101094822D01*
X45530450Y-101094822D02*
X45359022Y-101151965D01*
X45359022Y-101151965D02*
X45301879Y-101209108D01*
X50891965Y-100019548D02*
X50834822Y-99905263D01*
X50834822Y-99905263D02*
X50834822Y-99733834D01*
X50834822Y-99733834D02*
X50891965Y-99562405D01*
X50891965Y-99562405D02*
X51006251Y-99448120D01*
X51006251Y-99448120D02*
X51120537Y-99390977D01*
X51120537Y-99390977D02*
X51349108Y-99333834D01*
X51349108Y-99333834D02*
X51520537Y-99333834D01*
X51520537Y-99333834D02*
X51749108Y-99390977D01*
X51749108Y-99390977D02*
X51863394Y-99448120D01*
X51863394Y-99448120D02*
X51977680Y-99562405D01*
X51977680Y-99562405D02*
X52034822Y-99733834D01*
X52034822Y-99733834D02*
X52034822Y-99848120D01*
X52034822Y-99848120D02*
X51977680Y-100019548D01*
X51977680Y-100019548D02*
X51920537Y-100076691D01*
X51920537Y-100076691D02*
X51520537Y-100076691D01*
X51520537Y-100076691D02*
X51520537Y-99848120D01*
X52034822Y-100590977D02*
X50834822Y-100590977D01*
X50834822Y-100590977D02*
X52034822Y-101276691D01*
X52034822Y-101276691D02*
X50834822Y-101276691D01*
X52034822Y-101848120D02*
X50834822Y-101848120D01*
X50834822Y-101848120D02*
X50834822Y-102133834D01*
X50834822Y-102133834D02*
X50891965Y-102305263D01*
X50891965Y-102305263D02*
X51006251Y-102419548D01*
X51006251Y-102419548D02*
X51120537Y-102476691D01*
X51120537Y-102476691D02*
X51349108Y-102533834D01*
X51349108Y-102533834D02*
X51520537Y-102533834D01*
X51520537Y-102533834D02*
X51749108Y-102476691D01*
X51749108Y-102476691D02*
X51863394Y-102419548D01*
X51863394Y-102419548D02*
X51977680Y-102305263D01*
X51977680Y-102305263D02*
X52034822Y-102133834D01*
X52034822Y-102133834D02*
X52034822Y-101848120D01*
X51399022Y-97166251D02*
X51227594Y-97223394D01*
X51227594Y-97223394D02*
X51170451Y-97280537D01*
X51170451Y-97280537D02*
X51113308Y-97394822D01*
X51113308Y-97394822D02*
X51113308Y-97566251D01*
X51113308Y-97566251D02*
X51170451Y-97680537D01*
X51170451Y-97680537D02*
X51227594Y-97737680D01*
X51227594Y-97737680D02*
X51341879Y-97794822D01*
X51341879Y-97794822D02*
X51799022Y-97794822D01*
X51799022Y-97794822D02*
X51799022Y-96594822D01*
X51799022Y-96594822D02*
X51399022Y-96594822D01*
X51399022Y-96594822D02*
X51284737Y-96651965D01*
X51284737Y-96651965D02*
X51227594Y-96709108D01*
X51227594Y-96709108D02*
X51170451Y-96823394D01*
X51170451Y-96823394D02*
X51170451Y-96937680D01*
X51170451Y-96937680D02*
X51227594Y-97051965D01*
X51227594Y-97051965D02*
X51284737Y-97109108D01*
X51284737Y-97109108D02*
X51399022Y-97166251D01*
X51399022Y-97166251D02*
X51799022Y-97166251D01*
X50656165Y-97451965D02*
X50084737Y-97451965D01*
X50770451Y-97794822D02*
X50370451Y-96594822D01*
X50370451Y-96594822D02*
X49970451Y-97794822D01*
X49741880Y-96594822D02*
X49056166Y-96594822D01*
X49399023Y-97794822D02*
X49399023Y-96594822D01*
X51570451Y-103944822D02*
X51341879Y-103944822D01*
X51341879Y-103944822D02*
X51227594Y-104001965D01*
X51227594Y-104001965D02*
X51113308Y-104116251D01*
X51113308Y-104116251D02*
X51056165Y-104344822D01*
X51056165Y-104344822D02*
X51056165Y-104744822D01*
X51056165Y-104744822D02*
X51113308Y-104973394D01*
X51113308Y-104973394D02*
X51227594Y-105087680D01*
X51227594Y-105087680D02*
X51341879Y-105144822D01*
X51341879Y-105144822D02*
X51570451Y-105144822D01*
X51570451Y-105144822D02*
X51684737Y-105087680D01*
X51684737Y-105087680D02*
X51799022Y-104973394D01*
X51799022Y-104973394D02*
X51856165Y-104744822D01*
X51856165Y-104744822D02*
X51856165Y-104344822D01*
X51856165Y-104344822D02*
X51799022Y-104116251D01*
X51799022Y-104116251D02*
X51684737Y-104001965D01*
X51684737Y-104001965D02*
X51570451Y-103944822D01*
X50541879Y-103944822D02*
X50541879Y-104916251D01*
X50541879Y-104916251D02*
X50484736Y-105030537D01*
X50484736Y-105030537D02*
X50427594Y-105087680D01*
X50427594Y-105087680D02*
X50313308Y-105144822D01*
X50313308Y-105144822D02*
X50084736Y-105144822D01*
X50084736Y-105144822D02*
X49970451Y-105087680D01*
X49970451Y-105087680D02*
X49913308Y-105030537D01*
X49913308Y-105030537D02*
X49856165Y-104916251D01*
X49856165Y-104916251D02*
X49856165Y-103944822D01*
X49456165Y-103944822D02*
X48770451Y-103944822D01*
X49113308Y-105144822D02*
X49113308Y-103944822D01*
X26716671Y-97942857D02*
X26773814Y-97885714D01*
X26773814Y-97885714D02*
X26830956Y-97714286D01*
X26830956Y-97714286D02*
X26830956Y-97600000D01*
X26830956Y-97600000D02*
X26773814Y-97428571D01*
X26773814Y-97428571D02*
X26659528Y-97314286D01*
X26659528Y-97314286D02*
X26545242Y-97257143D01*
X26545242Y-97257143D02*
X26316671Y-97200000D01*
X26316671Y-97200000D02*
X26145242Y-97200000D01*
X26145242Y-97200000D02*
X25916671Y-97257143D01*
X25916671Y-97257143D02*
X25802385Y-97314286D01*
X25802385Y-97314286D02*
X25688099Y-97428571D01*
X25688099Y-97428571D02*
X25630956Y-97600000D01*
X25630956Y-97600000D02*
X25630956Y-97714286D01*
X25630956Y-97714286D02*
X25688099Y-97885714D01*
X25688099Y-97885714D02*
X25745242Y-97942857D01*
X26830956Y-98457143D02*
X25630956Y-98457143D01*
X26830956Y-98971429D02*
X26202385Y-98971429D01*
X26202385Y-98971429D02*
X26088099Y-98914286D01*
X26088099Y-98914286D02*
X26030956Y-98800000D01*
X26030956Y-98800000D02*
X26030956Y-98628571D01*
X26030956Y-98628571D02*
X26088099Y-98514286D01*
X26088099Y-98514286D02*
X26145242Y-98457143D01*
X26830956Y-100057143D02*
X26202385Y-100057143D01*
X26202385Y-100057143D02*
X26088099Y-100000000D01*
X26088099Y-100000000D02*
X26030956Y-99885714D01*
X26030956Y-99885714D02*
X26030956Y-99657143D01*
X26030956Y-99657143D02*
X26088099Y-99542857D01*
X26773814Y-100057143D02*
X26830956Y-99942857D01*
X26830956Y-99942857D02*
X26830956Y-99657143D01*
X26830956Y-99657143D02*
X26773814Y-99542857D01*
X26773814Y-99542857D02*
X26659528Y-99485714D01*
X26659528Y-99485714D02*
X26545242Y-99485714D01*
X26545242Y-99485714D02*
X26430956Y-99542857D01*
X26430956Y-99542857D02*
X26373814Y-99657143D01*
X26373814Y-99657143D02*
X26373814Y-99942857D01*
X26373814Y-99942857D02*
X26316671Y-100057143D01*
X26830956Y-100628571D02*
X26030956Y-100628571D01*
X26259528Y-100628571D02*
X26145242Y-100685714D01*
X26145242Y-100685714D02*
X26088099Y-100742857D01*
X26088099Y-100742857D02*
X26030956Y-100857142D01*
X26030956Y-100857142D02*
X26030956Y-100971428D01*
X26030956Y-101885714D02*
X27002385Y-101885714D01*
X27002385Y-101885714D02*
X27116671Y-101828571D01*
X27116671Y-101828571D02*
X27173814Y-101771428D01*
X27173814Y-101771428D02*
X27230956Y-101657142D01*
X27230956Y-101657142D02*
X27230956Y-101485714D01*
X27230956Y-101485714D02*
X27173814Y-101371428D01*
X26773814Y-101885714D02*
X26830956Y-101771428D01*
X26830956Y-101771428D02*
X26830956Y-101542856D01*
X26830956Y-101542856D02*
X26773814Y-101428571D01*
X26773814Y-101428571D02*
X26716671Y-101371428D01*
X26716671Y-101371428D02*
X26602385Y-101314285D01*
X26602385Y-101314285D02*
X26259528Y-101314285D01*
X26259528Y-101314285D02*
X26145242Y-101371428D01*
X26145242Y-101371428D02*
X26088099Y-101428571D01*
X26088099Y-101428571D02*
X26030956Y-101542856D01*
X26030956Y-101542856D02*
X26030956Y-101771428D01*
X26030956Y-101771428D02*
X26088099Y-101885714D01*
X26830956Y-102457142D02*
X26030956Y-102457142D01*
X25630956Y-102457142D02*
X25688099Y-102399999D01*
X25688099Y-102399999D02*
X25745242Y-102457142D01*
X25745242Y-102457142D02*
X25688099Y-102514285D01*
X25688099Y-102514285D02*
X25630956Y-102457142D01*
X25630956Y-102457142D02*
X25745242Y-102457142D01*
X26030956Y-103028571D02*
X26830956Y-103028571D01*
X26145242Y-103028571D02*
X26088099Y-103085714D01*
X26088099Y-103085714D02*
X26030956Y-103199999D01*
X26030956Y-103199999D02*
X26030956Y-103371428D01*
X26030956Y-103371428D02*
X26088099Y-103485714D01*
X26088099Y-103485714D02*
X26202385Y-103542857D01*
X26202385Y-103542857D02*
X26830956Y-103542857D01*
X26030956Y-104628571D02*
X27002385Y-104628571D01*
X27002385Y-104628571D02*
X27116671Y-104571428D01*
X27116671Y-104571428D02*
X27173814Y-104514285D01*
X27173814Y-104514285D02*
X27230956Y-104399999D01*
X27230956Y-104399999D02*
X27230956Y-104228571D01*
X27230956Y-104228571D02*
X27173814Y-104114285D01*
X26773814Y-104628571D02*
X26830956Y-104514285D01*
X26830956Y-104514285D02*
X26830956Y-104285713D01*
X26830956Y-104285713D02*
X26773814Y-104171428D01*
X26773814Y-104171428D02*
X26716671Y-104114285D01*
X26716671Y-104114285D02*
X26602385Y-104057142D01*
X26602385Y-104057142D02*
X26259528Y-104057142D01*
X26259528Y-104057142D02*
X26145242Y-104114285D01*
X26145242Y-104114285D02*
X26088099Y-104171428D01*
X26088099Y-104171428D02*
X26030956Y-104285713D01*
X26030956Y-104285713D02*
X26030956Y-104514285D01*
X26030956Y-104514285D02*
X26088099Y-104628571D01*
X28762889Y-98085715D02*
X27562889Y-98085715D01*
X27562889Y-98085715D02*
X28420032Y-98485715D01*
X28420032Y-98485715D02*
X27562889Y-98885715D01*
X27562889Y-98885715D02*
X28762889Y-98885715D01*
X28762889Y-99628572D02*
X28705747Y-99514287D01*
X28705747Y-99514287D02*
X28648604Y-99457144D01*
X28648604Y-99457144D02*
X28534318Y-99400001D01*
X28534318Y-99400001D02*
X28191461Y-99400001D01*
X28191461Y-99400001D02*
X28077175Y-99457144D01*
X28077175Y-99457144D02*
X28020032Y-99514287D01*
X28020032Y-99514287D02*
X27962889Y-99628572D01*
X27962889Y-99628572D02*
X27962889Y-99800001D01*
X27962889Y-99800001D02*
X28020032Y-99914287D01*
X28020032Y-99914287D02*
X28077175Y-99971430D01*
X28077175Y-99971430D02*
X28191461Y-100028572D01*
X28191461Y-100028572D02*
X28534318Y-100028572D01*
X28534318Y-100028572D02*
X28648604Y-99971430D01*
X28648604Y-99971430D02*
X28705747Y-99914287D01*
X28705747Y-99914287D02*
X28762889Y-99800001D01*
X28762889Y-99800001D02*
X28762889Y-99628572D01*
X28762889Y-101057144D02*
X27562889Y-101057144D01*
X28705747Y-101057144D02*
X28762889Y-100942858D01*
X28762889Y-100942858D02*
X28762889Y-100714286D01*
X28762889Y-100714286D02*
X28705747Y-100600001D01*
X28705747Y-100600001D02*
X28648604Y-100542858D01*
X28648604Y-100542858D02*
X28534318Y-100485715D01*
X28534318Y-100485715D02*
X28191461Y-100485715D01*
X28191461Y-100485715D02*
X28077175Y-100542858D01*
X28077175Y-100542858D02*
X28020032Y-100600001D01*
X28020032Y-100600001D02*
X27962889Y-100714286D01*
X27962889Y-100714286D02*
X27962889Y-100942858D01*
X27962889Y-100942858D02*
X28020032Y-101057144D01*
X27962889Y-102142858D02*
X28762889Y-102142858D01*
X27962889Y-101628572D02*
X28591461Y-101628572D01*
X28591461Y-101628572D02*
X28705747Y-101685715D01*
X28705747Y-101685715D02*
X28762889Y-101800000D01*
X28762889Y-101800000D02*
X28762889Y-101971429D01*
X28762889Y-101971429D02*
X28705747Y-102085715D01*
X28705747Y-102085715D02*
X28648604Y-102142858D01*
X28762889Y-102885714D02*
X28705747Y-102771429D01*
X28705747Y-102771429D02*
X28591461Y-102714286D01*
X28591461Y-102714286D02*
X27562889Y-102714286D01*
X28705747Y-103800000D02*
X28762889Y-103685714D01*
X28762889Y-103685714D02*
X28762889Y-103457143D01*
X28762889Y-103457143D02*
X28705747Y-103342857D01*
X28705747Y-103342857D02*
X28591461Y-103285714D01*
X28591461Y-103285714D02*
X28134318Y-103285714D01*
X28134318Y-103285714D02*
X28020032Y-103342857D01*
X28020032Y-103342857D02*
X27962889Y-103457143D01*
X27962889Y-103457143D02*
X27962889Y-103685714D01*
X27962889Y-103685714D02*
X28020032Y-103800000D01*
X28020032Y-103800000D02*
X28134318Y-103857143D01*
X28134318Y-103857143D02*
X28248604Y-103857143D01*
X28248604Y-103857143D02*
X28362889Y-103285714D01*
X30637680Y-99657143D02*
X30694822Y-99828572D01*
X30694822Y-99828572D02*
X30694822Y-100114286D01*
X30694822Y-100114286D02*
X30637680Y-100228572D01*
X30637680Y-100228572D02*
X30580537Y-100285714D01*
X30580537Y-100285714D02*
X30466251Y-100342857D01*
X30466251Y-100342857D02*
X30351965Y-100342857D01*
X30351965Y-100342857D02*
X30237680Y-100285714D01*
X30237680Y-100285714D02*
X30180537Y-100228572D01*
X30180537Y-100228572D02*
X30123394Y-100114286D01*
X30123394Y-100114286D02*
X30066251Y-99885714D01*
X30066251Y-99885714D02*
X30009108Y-99771429D01*
X30009108Y-99771429D02*
X29951965Y-99714286D01*
X29951965Y-99714286D02*
X29837680Y-99657143D01*
X29837680Y-99657143D02*
X29723394Y-99657143D01*
X29723394Y-99657143D02*
X29609108Y-99714286D01*
X29609108Y-99714286D02*
X29551965Y-99771429D01*
X29551965Y-99771429D02*
X29494822Y-99885714D01*
X29494822Y-99885714D02*
X29494822Y-100171429D01*
X29494822Y-100171429D02*
X29551965Y-100342857D01*
X30694822Y-101028571D02*
X30637680Y-100914286D01*
X30637680Y-100914286D02*
X30523394Y-100857143D01*
X30523394Y-100857143D02*
X29494822Y-100857143D01*
X30694822Y-101485714D02*
X29894822Y-101485714D01*
X29494822Y-101485714D02*
X29551965Y-101428571D01*
X29551965Y-101428571D02*
X29609108Y-101485714D01*
X29609108Y-101485714D02*
X29551965Y-101542857D01*
X29551965Y-101542857D02*
X29494822Y-101485714D01*
X29494822Y-101485714D02*
X29609108Y-101485714D01*
X30694822Y-102057143D02*
X29894822Y-102057143D01*
X30009108Y-102057143D02*
X29951965Y-102114286D01*
X29951965Y-102114286D02*
X29894822Y-102228571D01*
X29894822Y-102228571D02*
X29894822Y-102400000D01*
X29894822Y-102400000D02*
X29951965Y-102514286D01*
X29951965Y-102514286D02*
X30066251Y-102571429D01*
X30066251Y-102571429D02*
X30694822Y-102571429D01*
X30066251Y-102571429D02*
X29951965Y-102628571D01*
X29951965Y-102628571D02*
X29894822Y-102742857D01*
X29894822Y-102742857D02*
X29894822Y-102914286D01*
X29894822Y-102914286D02*
X29951965Y-103028571D01*
X29951965Y-103028571D02*
X30066251Y-103085714D01*
X30066251Y-103085714D02*
X30694822Y-103085714D01*
M02*
