%TF.GenerationSoftware,KiCad,Pcbnew,9.0.4*%
%TF.CreationDate,2025-09-14T00:07:07+02:00*%
%TF.ProjectId,charging-module-slim,63686172-6769-46e6-972d-6d6f64756c65,rev?*%
%TF.SameCoordinates,Original*%
%TF.FileFunction,Soldermask,Top*%
%TF.FilePolarity,Negative*%
%FSLAX46Y46*%
G04 Gerber Fmt 4.6, Leading zero omitted, Abs format (unit mm)*
G04 Created by KiCad (PCBNEW 9.0.4) date 2025-09-14 00:07:07*
%MOMM*%
%LPD*%
G01*
G04 APERTURE LIST*
G04 Aperture macros list*
%AMRoundRect*
0 Rectangle with rounded corners*
0 $1 Rounding radius*
0 $2 $3 $4 $5 $6 $7 $8 $9 X,Y pos of 4 corners*
0 Add a 4 corners polygon primitive as box body*
4,1,4,$2,$3,$4,$5,$6,$7,$8,$9,$2,$3,0*
0 Add four circle primitives for the rounded corners*
1,1,$1+$1,$2,$3*
1,1,$1+$1,$4,$5*
1,1,$1+$1,$6,$7*
1,1,$1+$1,$8,$9*
0 Add four rect primitives between the rounded corners*
20,1,$1+$1,$2,$3,$4,$5,0*
20,1,$1+$1,$4,$5,$6,$7,0*
20,1,$1+$1,$6,$7,$8,$9,0*
20,1,$1+$1,$8,$9,$2,$3,0*%
G04 Aperture macros list end*
%ADD10RoundRect,0.250000X-0.450000X0.350000X-0.450000X-0.350000X0.450000X-0.350000X0.450000X0.350000X0*%
%ADD11RoundRect,0.250000X0.337500X0.475000X-0.337500X0.475000X-0.337500X-0.475000X0.337500X-0.475000X0*%
%ADD12RoundRect,0.250000X-0.350000X-0.450000X0.350000X-0.450000X0.350000X0.450000X-0.350000X0.450000X0*%
%ADD13R,1.350000X1.350000*%
%ADD14C,1.350000*%
%ADD15C,0.650000*%
%ADD16R,1.450000X0.600000*%
%ADD17R,1.450000X0.300000*%
%ADD18O,2.100000X1.000000*%
%ADD19O,1.600000X1.000000*%
%ADD20RoundRect,0.250000X-0.475000X0.337500X-0.475000X-0.337500X0.475000X-0.337500X0.475000X0.337500X0*%
%ADD21R,0.300000X0.800000*%
%ADD22R,0.800000X0.300000*%
%ADD23R,2.800000X2.800000*%
%ADD24RoundRect,0.250000X0.350000X0.450000X-0.350000X0.450000X-0.350000X-0.450000X0.350000X-0.450000X0*%
%ADD25RoundRect,0.250000X0.450000X-0.325000X0.450000X0.325000X-0.450000X0.325000X-0.450000X-0.325000X0*%
G04 APERTURE END LIST*
D10*
%TO.C,R2*%
X33000000Y-103250000D03*
X33000000Y-105250000D03*
%TD*%
D11*
%TO.C,C3*%
X48300000Y-96750000D03*
X46225000Y-96750000D03*
%TD*%
%TO.C,C2*%
X50787500Y-105050000D03*
X48712500Y-105050000D03*
%TD*%
D12*
%TO.C,R9*%
X42100000Y-96750000D03*
X44100000Y-96750000D03*
%TD*%
D10*
%TO.C,R6*%
X42300000Y-103250000D03*
X42300000Y-105250000D03*
%TD*%
D13*
%TO.C,TH1*%
X49550000Y-101750000D03*
D14*
X49550000Y-99750000D03*
%TD*%
D15*
%TO.C,J2*%
X28950000Y-98110000D03*
X28950000Y-103890000D03*
D16*
X30395000Y-97750000D03*
X30395000Y-98550000D03*
D17*
X30395000Y-99750000D03*
X30395000Y-100750000D03*
X30395000Y-101250000D03*
X30395000Y-102250000D03*
D16*
X30395000Y-103450000D03*
X30395000Y-104250000D03*
X30395000Y-104250000D03*
X30395000Y-103450000D03*
D17*
X30395000Y-102750000D03*
X30395000Y-101750000D03*
X30395000Y-100250000D03*
X30395000Y-99250000D03*
D16*
X30395000Y-98550000D03*
X30395000Y-97750000D03*
D18*
X29480000Y-96680000D03*
D19*
X25300000Y-96680000D03*
D18*
X29480000Y-105320000D03*
D19*
X25300000Y-105320000D03*
%TD*%
D10*
%TO.C,R3*%
X37800000Y-103250000D03*
X37800000Y-105250000D03*
%TD*%
D13*
%TO.C,J1*%
X53250000Y-97270000D03*
D14*
X53250000Y-99270000D03*
%TD*%
D20*
%TO.C,C1*%
X33000000Y-98712500D03*
X33000000Y-100787500D03*
%TD*%
D10*
%TO.C,R7*%
X44550000Y-103250000D03*
X44550000Y-105250000D03*
%TD*%
%TO.C,R4*%
X40050000Y-103250000D03*
X40050000Y-105250000D03*
%TD*%
D21*
%TO.C,IC1*%
X37250000Y-101250000D03*
X37750000Y-101250000D03*
X38250000Y-101250000D03*
X38750000Y-101250000D03*
X39250000Y-101250000D03*
D22*
X40250000Y-100250000D03*
X40250000Y-99750000D03*
X40250000Y-99250000D03*
X40250000Y-98750000D03*
X40250000Y-98250000D03*
D21*
X39250000Y-97250000D03*
X38750000Y-97250000D03*
X38250000Y-97250000D03*
X37750000Y-97250000D03*
X37250000Y-97250000D03*
D22*
X36250000Y-98250000D03*
X36250000Y-98750000D03*
X36250000Y-99250000D03*
X36250000Y-99750000D03*
X36250000Y-100250000D03*
D23*
X38250000Y-99250000D03*
%TD*%
D10*
%TO.C,R1*%
X35250000Y-103250000D03*
X35250000Y-105250000D03*
%TD*%
D24*
%TO.C,R5*%
X34750000Y-96700000D03*
X32750000Y-96700000D03*
%TD*%
D25*
%TO.C,D2*%
X44550000Y-101125000D03*
X44550000Y-99075000D03*
%TD*%
%TO.C,D3*%
X46800000Y-101125000D03*
X46800000Y-99075000D03*
%TD*%
%TO.C,D1*%
X42300000Y-101125000D03*
X42300000Y-99075000D03*
%TD*%
D10*
%TO.C,R8*%
X46800000Y-103250000D03*
X46800000Y-105250000D03*
%TD*%
D13*
%TO.C,J3*%
X53250000Y-104530000D03*
D14*
X53250000Y-102530000D03*
%TD*%
M02*
